G75*
%MOIN*%
%OFA0B0*%
%FSLAX25Y25*%
%IPPOS*%
%LPD*%
%AMOC8*
5,1,8,0,0,1.08239X$1,22.5*
%
%ADD10C,0.00400*%
%ADD11C,0.00500*%
%ADD12R,0.01772X0.02362*%
%ADD13C,0.00300*%
%ADD14R,0.00787X0.00787*%
%ADD15C,0.00600*%
%ADD16C,0.00200*%
%ADD17C,0.00800*%
%ADD18C,0.01720*%
D10*
X0052196Y0043700D02*
X0052196Y0046002D01*
X0052963Y0046769D01*
X0054498Y0046769D01*
X0055265Y0046002D01*
X0055265Y0043700D01*
X0055265Y0045235D02*
X0056800Y0046769D01*
X0056800Y0048304D02*
X0053731Y0051373D01*
X0052963Y0051373D01*
X0052196Y0050606D01*
X0052196Y0049071D01*
X0052963Y0048304D01*
X0056800Y0048304D02*
X0056800Y0051373D01*
X0056800Y0043700D02*
X0052196Y0043700D01*
X0073700Y0069200D02*
X0073700Y0073804D01*
X0076002Y0073804D01*
X0076769Y0073037D01*
X0076769Y0071502D01*
X0076002Y0070735D01*
X0073700Y0070735D01*
X0075235Y0070735D02*
X0076769Y0069200D01*
X0078304Y0069967D02*
X0079071Y0069200D01*
X0080606Y0069200D01*
X0081373Y0069967D01*
X0081373Y0070735D01*
X0080606Y0071502D01*
X0079839Y0071502D01*
X0080606Y0071502D02*
X0081373Y0072269D01*
X0081373Y0073037D01*
X0080606Y0073804D01*
X0079071Y0073804D01*
X0078304Y0073037D01*
X0097196Y0047165D02*
X0097196Y0044096D01*
X0099498Y0044096D01*
X0098731Y0045631D01*
X0098731Y0046398D01*
X0099498Y0047165D01*
X0101033Y0047165D01*
X0101800Y0046398D01*
X0101800Y0044863D01*
X0101033Y0044096D01*
X0101800Y0042561D02*
X0100265Y0041027D01*
X0100265Y0041794D02*
X0100265Y0039492D01*
X0101800Y0039492D02*
X0097196Y0039492D01*
X0097196Y0041794D01*
X0097963Y0042561D01*
X0099498Y0042561D01*
X0100265Y0041794D01*
X0122259Y0065700D02*
X0123794Y0065700D01*
X0124561Y0066467D01*
X0126096Y0066467D02*
X0126863Y0065700D01*
X0128398Y0065700D01*
X0129165Y0066467D01*
X0129165Y0067235D01*
X0128398Y0068002D01*
X0127631Y0068002D01*
X0128398Y0068002D02*
X0129165Y0068769D01*
X0129165Y0069537D01*
X0128398Y0070304D01*
X0126863Y0070304D01*
X0126096Y0069537D01*
X0124561Y0069537D02*
X0123794Y0070304D01*
X0122259Y0070304D01*
X0121492Y0069537D01*
X0121492Y0066467D01*
X0122259Y0065700D01*
X0141700Y0078200D02*
X0141700Y0082804D01*
X0144002Y0082804D01*
X0144769Y0082037D01*
X0144769Y0080502D01*
X0144002Y0079735D01*
X0141700Y0079735D01*
X0143235Y0079735D02*
X0144769Y0078200D01*
X0146304Y0078200D02*
X0149373Y0078200D01*
X0147839Y0078200D02*
X0147839Y0082804D01*
X0146304Y0081269D01*
X0180700Y0093467D02*
X0181467Y0092700D01*
X0183002Y0092700D01*
X0183769Y0093467D01*
X0185304Y0092700D02*
X0188373Y0092700D01*
X0186839Y0092700D02*
X0186839Y0097304D01*
X0185304Y0095769D01*
X0183769Y0096537D02*
X0183002Y0097304D01*
X0181467Y0097304D01*
X0180700Y0096537D01*
X0180700Y0093467D01*
X0181467Y0112700D02*
X0183002Y0112700D01*
X0183769Y0113467D01*
X0185304Y0112700D02*
X0188373Y0115769D01*
X0188373Y0116537D01*
X0187606Y0117304D01*
X0186071Y0117304D01*
X0185304Y0116537D01*
X0183769Y0116537D02*
X0183002Y0117304D01*
X0181467Y0117304D01*
X0180700Y0116537D01*
X0180700Y0113467D01*
X0181467Y0112700D01*
X0185304Y0112700D02*
X0188373Y0112700D01*
X0176131Y0028804D02*
X0174596Y0027269D01*
X0173061Y0028037D02*
X0172294Y0028804D01*
X0169992Y0028804D01*
X0169992Y0024200D01*
X0172294Y0024200D01*
X0173061Y0024967D01*
X0173061Y0028037D01*
X0176131Y0028804D02*
X0176131Y0024200D01*
X0177665Y0024200D02*
X0174596Y0024200D01*
X0168457Y0024200D02*
X0165388Y0024200D01*
X0165388Y0028804D01*
X0168457Y0028804D01*
X0166923Y0026502D02*
X0165388Y0026502D01*
X0163854Y0024200D02*
X0160784Y0024200D01*
X0160784Y0028804D01*
X0158398Y0028804D02*
X0156096Y0026502D01*
X0159165Y0026502D01*
X0158398Y0024200D02*
X0158398Y0028804D01*
X0154561Y0028037D02*
X0154561Y0026502D01*
X0153794Y0025735D01*
X0151492Y0025735D01*
X0153027Y0025735D02*
X0154561Y0024200D01*
X0151492Y0024200D02*
X0151492Y0028804D01*
X0153794Y0028804D01*
X0154561Y0028037D01*
D11*
X0144898Y0038750D02*
X0143397Y0038750D01*
X0142646Y0039501D01*
X0145649Y0042503D01*
X0145649Y0039501D01*
X0144898Y0038750D01*
X0142646Y0039501D02*
X0142646Y0042503D01*
X0143397Y0043254D01*
X0144898Y0043254D01*
X0145649Y0042503D01*
X0141045Y0038750D02*
X0138042Y0038750D01*
X0139543Y0038750D02*
X0139543Y0043254D01*
X0138042Y0041753D01*
X0176438Y0041753D02*
X0177189Y0041002D01*
X0178690Y0041002D01*
X0179441Y0040251D01*
X0179441Y0039501D01*
X0178690Y0038750D01*
X0177189Y0038750D01*
X0176438Y0039501D01*
X0176438Y0041753D02*
X0176438Y0042503D01*
X0177189Y0043254D01*
X0178690Y0043254D01*
X0179441Y0042503D01*
X0181042Y0043254D02*
X0181042Y0040251D01*
X0182543Y0038750D01*
X0184045Y0040251D01*
X0184045Y0043254D01*
X0185646Y0041753D02*
X0187147Y0043254D01*
X0187147Y0038750D01*
X0185646Y0038750D02*
X0188649Y0038750D01*
X0185649Y0066750D02*
X0182646Y0066750D01*
X0184147Y0066750D02*
X0184147Y0071254D01*
X0182646Y0069753D01*
X0153250Y0081001D02*
X0152499Y0080250D01*
X0149497Y0080250D01*
X0148746Y0081001D01*
X0148746Y0082502D01*
X0149497Y0083253D01*
X0152499Y0083253D01*
X0153250Y0082502D01*
X0153250Y0081001D01*
X0151749Y0081751D02*
X0153250Y0083253D01*
X0153250Y0084854D02*
X0153250Y0087856D01*
X0153250Y0086355D02*
X0148746Y0086355D01*
X0150247Y0084854D01*
X0097647Y0059254D02*
X0097647Y0054750D01*
X0096146Y0054750D02*
X0099149Y0054750D01*
X0096146Y0057753D02*
X0097647Y0059254D01*
X0094545Y0059254D02*
X0093043Y0059254D01*
X0093794Y0059254D02*
X0093794Y0055501D01*
X0093043Y0054750D01*
X0092293Y0054750D01*
X0091542Y0055501D01*
X0089941Y0055501D02*
X0089190Y0054750D01*
X0087689Y0054750D01*
X0086938Y0055501D01*
X0087689Y0057002D02*
X0089190Y0057002D01*
X0089941Y0056251D01*
X0089941Y0055501D01*
X0087689Y0057002D02*
X0086938Y0057753D01*
X0086938Y0058503D01*
X0087689Y0059254D01*
X0089190Y0059254D01*
X0089941Y0058503D01*
X0082512Y0050150D02*
X0071488Y0050150D01*
X0071488Y0043850D01*
X0082512Y0043850D01*
X0082512Y0050150D01*
X0072409Y0046000D02*
X0072411Y0046048D01*
X0072417Y0046096D01*
X0072427Y0046143D01*
X0072440Y0046189D01*
X0072458Y0046234D01*
X0072478Y0046278D01*
X0072503Y0046320D01*
X0072531Y0046359D01*
X0072561Y0046396D01*
X0072595Y0046430D01*
X0072632Y0046462D01*
X0072670Y0046491D01*
X0072711Y0046516D01*
X0072754Y0046538D01*
X0072799Y0046556D01*
X0072845Y0046570D01*
X0072892Y0046581D01*
X0072940Y0046588D01*
X0072988Y0046591D01*
X0073036Y0046590D01*
X0073084Y0046585D01*
X0073132Y0046576D01*
X0073178Y0046564D01*
X0073223Y0046547D01*
X0073267Y0046527D01*
X0073309Y0046504D01*
X0073349Y0046477D01*
X0073387Y0046447D01*
X0073422Y0046414D01*
X0073454Y0046378D01*
X0073484Y0046340D01*
X0073510Y0046299D01*
X0073532Y0046256D01*
X0073552Y0046212D01*
X0073567Y0046167D01*
X0073579Y0046120D01*
X0073587Y0046072D01*
X0073591Y0046024D01*
X0073591Y0045976D01*
X0073587Y0045928D01*
X0073579Y0045880D01*
X0073567Y0045833D01*
X0073552Y0045788D01*
X0073532Y0045744D01*
X0073510Y0045701D01*
X0073484Y0045660D01*
X0073454Y0045622D01*
X0073422Y0045586D01*
X0073387Y0045553D01*
X0073349Y0045523D01*
X0073309Y0045496D01*
X0073267Y0045473D01*
X0073223Y0045453D01*
X0073178Y0045436D01*
X0073132Y0045424D01*
X0073084Y0045415D01*
X0073036Y0045410D01*
X0072988Y0045409D01*
X0072940Y0045412D01*
X0072892Y0045419D01*
X0072845Y0045430D01*
X0072799Y0045444D01*
X0072754Y0045462D01*
X0072711Y0045484D01*
X0072670Y0045509D01*
X0072632Y0045538D01*
X0072595Y0045570D01*
X0072561Y0045604D01*
X0072531Y0045641D01*
X0072503Y0045680D01*
X0072478Y0045722D01*
X0072458Y0045766D01*
X0072440Y0045811D01*
X0072427Y0045857D01*
X0072417Y0045904D01*
X0072411Y0045952D01*
X0072409Y0046000D01*
X0022460Y0077501D02*
X0021710Y0076750D01*
X0020208Y0076750D01*
X0019458Y0077501D01*
X0019458Y0079002D02*
X0020959Y0079753D01*
X0021710Y0079753D01*
X0022460Y0079002D01*
X0022460Y0077501D01*
X0019458Y0079002D02*
X0019458Y0081254D01*
X0022460Y0081254D01*
X0017856Y0081254D02*
X0017856Y0078251D01*
X0016355Y0076750D01*
X0014854Y0078251D01*
X0014854Y0081254D01*
X0013253Y0080503D02*
X0012502Y0081254D01*
X0011001Y0081254D01*
X0010250Y0080503D01*
X0010250Y0079753D01*
X0011001Y0079002D01*
X0012502Y0079002D01*
X0013253Y0078251D01*
X0013253Y0077501D01*
X0012502Y0076750D01*
X0011001Y0076750D01*
X0010250Y0077501D01*
X0008253Y0082750D02*
X0005250Y0082750D01*
X0006751Y0082750D02*
X0006751Y0087254D01*
X0005250Y0085753D01*
X0011001Y0091750D02*
X0010250Y0092501D01*
X0011001Y0091750D02*
X0012502Y0091750D01*
X0013253Y0092501D01*
X0013253Y0093251D01*
X0012502Y0094002D01*
X0011001Y0094002D01*
X0010250Y0094753D01*
X0010250Y0095503D01*
X0011001Y0096254D01*
X0012502Y0096254D01*
X0013253Y0095503D01*
X0014854Y0096254D02*
X0014854Y0093251D01*
X0016355Y0091750D01*
X0017856Y0093251D01*
X0017856Y0096254D01*
X0019458Y0094002D02*
X0022460Y0094002D01*
X0021710Y0091750D02*
X0021710Y0096254D01*
X0019458Y0094002D01*
X0008253Y0097750D02*
X0005250Y0097750D01*
X0006751Y0097750D02*
X0006751Y0102254D01*
X0005250Y0100753D01*
X0011001Y0106750D02*
X0010250Y0107501D01*
X0011001Y0106750D02*
X0012502Y0106750D01*
X0013253Y0107501D01*
X0013253Y0108251D01*
X0012502Y0109002D01*
X0011001Y0109002D01*
X0010250Y0109753D01*
X0010250Y0110503D01*
X0011001Y0111254D01*
X0012502Y0111254D01*
X0013253Y0110503D01*
X0014854Y0111254D02*
X0014854Y0108251D01*
X0016355Y0106750D01*
X0017856Y0108251D01*
X0017856Y0111254D01*
X0019458Y0110503D02*
X0020208Y0111254D01*
X0021710Y0111254D01*
X0022460Y0110503D01*
X0022460Y0109753D01*
X0021710Y0109002D01*
X0022460Y0108251D01*
X0022460Y0107501D01*
X0021710Y0106750D01*
X0020208Y0106750D01*
X0019458Y0107501D01*
X0020959Y0109002D02*
X0021710Y0109002D01*
X0022460Y0121750D02*
X0019458Y0121750D01*
X0022460Y0124753D01*
X0022460Y0125503D01*
X0021710Y0126254D01*
X0020208Y0126254D01*
X0019458Y0125503D01*
X0017856Y0126254D02*
X0017856Y0123251D01*
X0016355Y0121750D01*
X0014854Y0123251D01*
X0014854Y0126254D01*
X0013253Y0125503D02*
X0012502Y0126254D01*
X0011001Y0126254D01*
X0010250Y0125503D01*
X0010250Y0124753D01*
X0011001Y0124002D01*
X0012502Y0124002D01*
X0013253Y0123251D01*
X0013253Y0122501D01*
X0012502Y0121750D01*
X0011001Y0121750D01*
X0010250Y0122501D01*
X0006751Y0117254D02*
X0006751Y0112750D01*
X0005250Y0112750D02*
X0008253Y0112750D01*
X0005250Y0115753D02*
X0006751Y0117254D01*
X0006751Y0072254D02*
X0006751Y0067750D01*
X0005250Y0067750D02*
X0008253Y0067750D01*
X0005250Y0070753D02*
X0006751Y0072254D01*
D12*
X0073260Y0051626D03*
X0080740Y0051626D03*
X0080740Y0042374D03*
X0077000Y0042374D03*
X0073260Y0042374D03*
D13*
X0073221Y0038452D02*
X0074189Y0038452D01*
X0073705Y0038452D02*
X0073705Y0035550D01*
X0073221Y0035550D02*
X0074189Y0035550D01*
X0075186Y0036034D02*
X0075669Y0035550D01*
X0076637Y0035550D01*
X0077121Y0036034D01*
X0078132Y0035550D02*
X0080067Y0035550D01*
X0079100Y0035550D02*
X0079100Y0038452D01*
X0078132Y0037485D01*
X0077121Y0037969D02*
X0076637Y0038452D01*
X0075669Y0038452D01*
X0075186Y0037969D01*
X0075186Y0036034D01*
D14*
X0173606Y0034000D03*
D15*
X0172500Y0045000D02*
X0170000Y0047500D01*
X0167500Y0045000D01*
X0162500Y0045000D01*
X0160000Y0047500D01*
X0157500Y0045000D01*
X0152500Y0045000D01*
X0150000Y0047500D01*
X0147500Y0045000D01*
X0142500Y0045000D01*
X0140000Y0047500D01*
X0140000Y0062500D01*
X0142500Y0065000D01*
X0147500Y0065000D01*
X0150000Y0062500D01*
X0152500Y0065000D01*
X0157500Y0065000D01*
X0160000Y0062500D01*
X0162500Y0065000D01*
X0167500Y0065000D01*
X0170000Y0062500D01*
X0172500Y0065000D01*
X0177500Y0065000D01*
X0180000Y0062500D01*
X0182500Y0065000D01*
X0187500Y0065000D01*
X0190000Y0062500D01*
X0190000Y0047500D01*
X0187500Y0045000D01*
X0182500Y0045000D01*
X0180000Y0047500D01*
X0177500Y0045000D01*
X0172500Y0045000D01*
X0173000Y0086500D02*
X0173000Y0113500D01*
X0172997Y0113719D01*
X0172989Y0113938D01*
X0172976Y0114157D01*
X0172957Y0114375D01*
X0172933Y0114593D01*
X0172904Y0114810D01*
X0172870Y0115027D01*
X0172830Y0115242D01*
X0172785Y0115457D01*
X0172734Y0115670D01*
X0172679Y0115882D01*
X0172618Y0116093D01*
X0172553Y0116302D01*
X0172482Y0116509D01*
X0172406Y0116715D01*
X0172325Y0116919D01*
X0172240Y0117121D01*
X0172149Y0117320D01*
X0172054Y0117517D01*
X0171953Y0117712D01*
X0171848Y0117905D01*
X0171739Y0118095D01*
X0171625Y0118282D01*
X0171506Y0118466D01*
X0171383Y0118647D01*
X0171255Y0118825D01*
X0171123Y0119001D01*
X0170987Y0119172D01*
X0170847Y0119341D01*
X0170703Y0119506D01*
X0170555Y0119667D01*
X0170403Y0119825D01*
X0170247Y0119979D01*
X0170087Y0120129D01*
X0169924Y0120276D01*
X0169757Y0120418D01*
X0169587Y0120556D01*
X0169413Y0120690D01*
X0169237Y0120820D01*
X0169057Y0120945D01*
X0168874Y0121066D01*
X0168688Y0121182D01*
X0168500Y0121294D01*
X0168309Y0121401D01*
X0168115Y0121504D01*
X0167919Y0121602D01*
X0167721Y0121695D01*
X0167520Y0121783D01*
X0167317Y0121866D01*
X0167112Y0121945D01*
X0166906Y0122018D01*
X0166698Y0122086D01*
X0166488Y0122149D01*
X0166276Y0122207D01*
X0166064Y0122260D01*
X0165850Y0122308D01*
X0165635Y0122350D01*
X0165419Y0122387D01*
X0165202Y0122419D01*
X0164984Y0122446D01*
X0164766Y0122467D01*
X0164548Y0122483D01*
X0164329Y0122494D01*
X0164110Y0122499D01*
X0163890Y0122499D01*
X0163671Y0122494D01*
X0163452Y0122483D01*
X0163234Y0122467D01*
X0163016Y0122446D01*
X0162798Y0122419D01*
X0162581Y0122387D01*
X0162365Y0122350D01*
X0162150Y0122308D01*
X0161936Y0122260D01*
X0161724Y0122207D01*
X0161512Y0122149D01*
X0161302Y0122086D01*
X0161094Y0122018D01*
X0160888Y0121945D01*
X0160683Y0121866D01*
X0160480Y0121783D01*
X0160279Y0121695D01*
X0160081Y0121602D01*
X0159885Y0121504D01*
X0159691Y0121401D01*
X0159500Y0121294D01*
X0159312Y0121182D01*
X0159126Y0121066D01*
X0158943Y0120945D01*
X0158763Y0120820D01*
X0158587Y0120690D01*
X0158413Y0120556D01*
X0158243Y0120418D01*
X0158076Y0120276D01*
X0157913Y0120129D01*
X0157753Y0119979D01*
X0157597Y0119825D01*
X0157445Y0119667D01*
X0157297Y0119506D01*
X0157153Y0119341D01*
X0157013Y0119172D01*
X0156877Y0119001D01*
X0156745Y0118825D01*
X0156617Y0118647D01*
X0156494Y0118466D01*
X0156375Y0118282D01*
X0156261Y0118095D01*
X0156152Y0117905D01*
X0156047Y0117712D01*
X0155946Y0117517D01*
X0155851Y0117320D01*
X0155760Y0117121D01*
X0155675Y0116919D01*
X0155594Y0116715D01*
X0155518Y0116509D01*
X0155447Y0116302D01*
X0155382Y0116093D01*
X0155321Y0115882D01*
X0155266Y0115670D01*
X0155215Y0115457D01*
X0155170Y0115242D01*
X0155130Y0115027D01*
X0155096Y0114810D01*
X0155067Y0114593D01*
X0155043Y0114375D01*
X0155024Y0114157D01*
X0155011Y0113938D01*
X0155003Y0113719D01*
X0155000Y0113500D01*
X0155000Y0086500D01*
X0155003Y0086281D01*
X0155011Y0086062D01*
X0155024Y0085843D01*
X0155043Y0085625D01*
X0155067Y0085407D01*
X0155096Y0085190D01*
X0155130Y0084973D01*
X0155170Y0084758D01*
X0155215Y0084543D01*
X0155266Y0084330D01*
X0155321Y0084118D01*
X0155382Y0083907D01*
X0155447Y0083698D01*
X0155518Y0083491D01*
X0155594Y0083285D01*
X0155675Y0083081D01*
X0155760Y0082879D01*
X0155851Y0082680D01*
X0155946Y0082483D01*
X0156047Y0082288D01*
X0156152Y0082095D01*
X0156261Y0081905D01*
X0156375Y0081718D01*
X0156494Y0081534D01*
X0156617Y0081353D01*
X0156745Y0081175D01*
X0156877Y0080999D01*
X0157013Y0080828D01*
X0157153Y0080659D01*
X0157297Y0080494D01*
X0157445Y0080333D01*
X0157597Y0080175D01*
X0157753Y0080021D01*
X0157913Y0079871D01*
X0158076Y0079724D01*
X0158243Y0079582D01*
X0158413Y0079444D01*
X0158587Y0079310D01*
X0158763Y0079180D01*
X0158943Y0079055D01*
X0159126Y0078934D01*
X0159312Y0078818D01*
X0159500Y0078706D01*
X0159691Y0078599D01*
X0159885Y0078496D01*
X0160081Y0078398D01*
X0160279Y0078305D01*
X0160480Y0078217D01*
X0160683Y0078134D01*
X0160888Y0078055D01*
X0161094Y0077982D01*
X0161302Y0077914D01*
X0161512Y0077851D01*
X0161724Y0077793D01*
X0161936Y0077740D01*
X0162150Y0077692D01*
X0162365Y0077650D01*
X0162581Y0077613D01*
X0162798Y0077581D01*
X0163016Y0077554D01*
X0163234Y0077533D01*
X0163452Y0077517D01*
X0163671Y0077506D01*
X0163890Y0077501D01*
X0164110Y0077501D01*
X0164329Y0077506D01*
X0164548Y0077517D01*
X0164766Y0077533D01*
X0164984Y0077554D01*
X0165202Y0077581D01*
X0165419Y0077613D01*
X0165635Y0077650D01*
X0165850Y0077692D01*
X0166064Y0077740D01*
X0166276Y0077793D01*
X0166488Y0077851D01*
X0166698Y0077914D01*
X0166906Y0077982D01*
X0167112Y0078055D01*
X0167317Y0078134D01*
X0167520Y0078217D01*
X0167721Y0078305D01*
X0167919Y0078398D01*
X0168115Y0078496D01*
X0168309Y0078599D01*
X0168500Y0078706D01*
X0168688Y0078818D01*
X0168874Y0078934D01*
X0169057Y0079055D01*
X0169237Y0079180D01*
X0169413Y0079310D01*
X0169587Y0079444D01*
X0169757Y0079582D01*
X0169924Y0079724D01*
X0170087Y0079871D01*
X0170247Y0080021D01*
X0170403Y0080175D01*
X0170555Y0080333D01*
X0170703Y0080494D01*
X0170847Y0080659D01*
X0170987Y0080828D01*
X0171123Y0080999D01*
X0171255Y0081175D01*
X0171383Y0081353D01*
X0171506Y0081534D01*
X0171625Y0081718D01*
X0171739Y0081905D01*
X0171848Y0082095D01*
X0171953Y0082288D01*
X0172054Y0082483D01*
X0172149Y0082680D01*
X0172240Y0082879D01*
X0172325Y0083081D01*
X0172406Y0083285D01*
X0172482Y0083491D01*
X0172553Y0083698D01*
X0172618Y0083907D01*
X0172679Y0084118D01*
X0172734Y0084330D01*
X0172785Y0084543D01*
X0172830Y0084758D01*
X0172870Y0084973D01*
X0172904Y0085190D01*
X0172933Y0085407D01*
X0172957Y0085625D01*
X0172976Y0085843D01*
X0172989Y0086062D01*
X0172997Y0086281D01*
X0173000Y0086500D01*
X0100500Y0067000D02*
X0100500Y0061000D01*
X0100498Y0060940D01*
X0100493Y0060879D01*
X0100484Y0060820D01*
X0100471Y0060761D01*
X0100455Y0060702D01*
X0100435Y0060645D01*
X0100412Y0060590D01*
X0100385Y0060535D01*
X0100356Y0060483D01*
X0100323Y0060432D01*
X0100287Y0060383D01*
X0100249Y0060337D01*
X0100207Y0060293D01*
X0100163Y0060251D01*
X0100117Y0060213D01*
X0100068Y0060177D01*
X0100017Y0060144D01*
X0099965Y0060115D01*
X0099910Y0060088D01*
X0099855Y0060065D01*
X0099798Y0060045D01*
X0099739Y0060029D01*
X0099680Y0060016D01*
X0099621Y0060007D01*
X0099560Y0060002D01*
X0099500Y0060000D01*
X0088500Y0060000D01*
X0088440Y0060002D01*
X0088379Y0060007D01*
X0088320Y0060016D01*
X0088261Y0060029D01*
X0088202Y0060045D01*
X0088145Y0060065D01*
X0088090Y0060088D01*
X0088035Y0060115D01*
X0087983Y0060144D01*
X0087932Y0060177D01*
X0087883Y0060213D01*
X0087837Y0060251D01*
X0087793Y0060293D01*
X0087751Y0060337D01*
X0087713Y0060383D01*
X0087677Y0060432D01*
X0087644Y0060483D01*
X0087615Y0060535D01*
X0087588Y0060590D01*
X0087565Y0060645D01*
X0087545Y0060702D01*
X0087529Y0060761D01*
X0087516Y0060820D01*
X0087507Y0060879D01*
X0087502Y0060940D01*
X0087500Y0061000D01*
X0087500Y0067000D01*
X0087502Y0067060D01*
X0087507Y0067121D01*
X0087516Y0067180D01*
X0087529Y0067239D01*
X0087545Y0067298D01*
X0087565Y0067355D01*
X0087588Y0067410D01*
X0087615Y0067465D01*
X0087644Y0067517D01*
X0087677Y0067568D01*
X0087713Y0067617D01*
X0087751Y0067663D01*
X0087793Y0067707D01*
X0087837Y0067749D01*
X0087883Y0067787D01*
X0087932Y0067823D01*
X0087983Y0067856D01*
X0088035Y0067885D01*
X0088090Y0067912D01*
X0088145Y0067935D01*
X0088202Y0067955D01*
X0088261Y0067971D01*
X0088320Y0067984D01*
X0088379Y0067993D01*
X0088440Y0067998D01*
X0088500Y0068000D01*
X0099500Y0068000D01*
X0099560Y0067998D01*
X0099621Y0067993D01*
X0099680Y0067984D01*
X0099739Y0067971D01*
X0099798Y0067955D01*
X0099855Y0067935D01*
X0099910Y0067912D01*
X0099965Y0067885D01*
X0100017Y0067856D01*
X0100068Y0067823D01*
X0100117Y0067787D01*
X0100163Y0067749D01*
X0100207Y0067707D01*
X0100249Y0067663D01*
X0100287Y0067617D01*
X0100323Y0067568D01*
X0100356Y0067517D01*
X0100385Y0067465D01*
X0100412Y0067410D01*
X0100435Y0067355D01*
X0100455Y0067298D01*
X0100471Y0067239D01*
X0100484Y0067180D01*
X0100493Y0067121D01*
X0100498Y0067060D01*
X0100500Y0067000D01*
X0040000Y0067500D02*
X0040000Y0072500D01*
X0037500Y0075000D01*
X0032500Y0075000D01*
X0030000Y0072500D01*
X0027500Y0075000D01*
X0022500Y0075000D01*
X0020000Y0072500D01*
X0017500Y0075000D01*
X0012500Y0075000D01*
X0010000Y0072500D01*
X0010000Y0067500D01*
X0012500Y0065000D01*
X0017500Y0065000D01*
X0020000Y0067500D01*
X0022500Y0065000D01*
X0027500Y0065000D01*
X0030000Y0067500D01*
X0032500Y0065000D01*
X0037500Y0065000D01*
X0040000Y0067500D01*
X0037500Y0080000D02*
X0032500Y0080000D01*
X0030000Y0082500D01*
X0027500Y0080000D01*
X0022500Y0080000D01*
X0020000Y0082500D01*
X0017500Y0080000D01*
X0012500Y0080000D01*
X0010000Y0082500D01*
X0010000Y0087500D01*
X0012500Y0090000D01*
X0017500Y0090000D01*
X0020000Y0087500D01*
X0022500Y0090000D01*
X0027500Y0090000D01*
X0030000Y0087500D01*
X0032500Y0090000D01*
X0037500Y0090000D01*
X0040000Y0087500D01*
X0040000Y0082500D01*
X0037500Y0080000D01*
X0037500Y0095000D02*
X0032500Y0095000D01*
X0030000Y0097500D01*
X0027500Y0095000D01*
X0022500Y0095000D01*
X0020000Y0097500D01*
X0017500Y0095000D01*
X0012500Y0095000D01*
X0010000Y0097500D01*
X0010000Y0102500D01*
X0012500Y0105000D01*
X0017500Y0105000D01*
X0020000Y0102500D01*
X0022500Y0105000D01*
X0027500Y0105000D01*
X0030000Y0102500D01*
X0032500Y0105000D01*
X0037500Y0105000D01*
X0040000Y0102500D01*
X0040000Y0097500D01*
X0037500Y0095000D01*
X0037500Y0110000D02*
X0032500Y0110000D01*
X0030000Y0112500D01*
X0027500Y0110000D01*
X0022500Y0110000D01*
X0020000Y0112500D01*
X0017500Y0110000D01*
X0012500Y0110000D01*
X0010000Y0112500D01*
X0010000Y0117500D01*
X0012500Y0120000D01*
X0017500Y0120000D01*
X0020000Y0117500D01*
X0022500Y0120000D01*
X0027500Y0120000D01*
X0030000Y0117500D01*
X0032500Y0120000D01*
X0037500Y0120000D01*
X0040000Y0117500D01*
X0040000Y0112500D01*
X0037500Y0110000D01*
D16*
X0062698Y0089044D02*
X0064900Y0089044D01*
X0064900Y0088310D02*
X0064900Y0089778D01*
X0063432Y0088310D02*
X0062698Y0089044D01*
X0062698Y0087568D02*
X0064533Y0087568D01*
X0064900Y0087201D01*
X0064900Y0086467D01*
X0064533Y0086100D01*
X0062698Y0086100D01*
X0129831Y0090544D02*
X0132767Y0090544D01*
X0132400Y0090177D02*
X0132400Y0090911D01*
X0132033Y0091278D01*
X0131666Y0091278D01*
X0131299Y0090911D01*
X0131299Y0090177D01*
X0130932Y0089810D01*
X0130565Y0089810D01*
X0130198Y0090177D01*
X0130198Y0090911D01*
X0130565Y0091278D01*
X0130932Y0092020D02*
X0130198Y0092754D01*
X0132400Y0092754D01*
X0132400Y0092020D02*
X0132400Y0093488D01*
X0132400Y0090177D02*
X0132033Y0089810D01*
X0132033Y0089068D02*
X0130198Y0089068D01*
X0130198Y0087600D02*
X0132033Y0087600D01*
X0132400Y0087967D01*
X0132400Y0088701D01*
X0132033Y0089068D01*
X0157000Y0086500D02*
X0157000Y0113500D01*
X0157002Y0113670D01*
X0157008Y0113841D01*
X0157019Y0114011D01*
X0157033Y0114181D01*
X0157052Y0114350D01*
X0157075Y0114519D01*
X0157101Y0114688D01*
X0157132Y0114855D01*
X0157167Y0115022D01*
X0157207Y0115188D01*
X0157250Y0115353D01*
X0157297Y0115517D01*
X0157348Y0115679D01*
X0157403Y0115841D01*
X0157462Y0116001D01*
X0157525Y0116159D01*
X0157591Y0116316D01*
X0157662Y0116471D01*
X0157736Y0116625D01*
X0157814Y0116776D01*
X0157896Y0116926D01*
X0157981Y0117074D01*
X0158070Y0117219D01*
X0158162Y0117362D01*
X0158258Y0117503D01*
X0158357Y0117642D01*
X0158460Y0117778D01*
X0158565Y0117912D01*
X0158674Y0118043D01*
X0158787Y0118171D01*
X0158902Y0118297D01*
X0159020Y0118420D01*
X0159141Y0118539D01*
X0159266Y0118656D01*
X0159393Y0118770D01*
X0159522Y0118881D01*
X0159655Y0118988D01*
X0159790Y0119092D01*
X0159927Y0119193D01*
X0160067Y0119291D01*
X0160209Y0119385D01*
X0160353Y0119475D01*
X0160500Y0119562D01*
X0160649Y0119646D01*
X0160799Y0119725D01*
X0160952Y0119801D01*
X0161106Y0119874D01*
X0161262Y0119942D01*
X0161420Y0120007D01*
X0161579Y0120068D01*
X0161740Y0120125D01*
X0161902Y0120178D01*
X0162065Y0120227D01*
X0162229Y0120272D01*
X0162395Y0120313D01*
X0162561Y0120351D01*
X0162729Y0120384D01*
X0162897Y0120412D01*
X0163065Y0120437D01*
X0163234Y0120458D01*
X0163404Y0120475D01*
X0163574Y0120487D01*
X0163744Y0120495D01*
X0163915Y0120499D01*
X0164085Y0120499D01*
X0164256Y0120495D01*
X0164426Y0120487D01*
X0164596Y0120475D01*
X0164766Y0120458D01*
X0164935Y0120437D01*
X0165103Y0120412D01*
X0165271Y0120384D01*
X0165439Y0120351D01*
X0165605Y0120313D01*
X0165771Y0120272D01*
X0165935Y0120227D01*
X0166098Y0120178D01*
X0166260Y0120125D01*
X0166421Y0120068D01*
X0166580Y0120007D01*
X0166738Y0119942D01*
X0166894Y0119874D01*
X0167048Y0119801D01*
X0167201Y0119725D01*
X0167351Y0119646D01*
X0167500Y0119562D01*
X0167647Y0119475D01*
X0167791Y0119385D01*
X0167933Y0119291D01*
X0168073Y0119193D01*
X0168210Y0119092D01*
X0168345Y0118988D01*
X0168478Y0118881D01*
X0168607Y0118770D01*
X0168734Y0118656D01*
X0168859Y0118539D01*
X0168980Y0118420D01*
X0169098Y0118297D01*
X0169213Y0118171D01*
X0169326Y0118043D01*
X0169435Y0117912D01*
X0169540Y0117778D01*
X0169643Y0117642D01*
X0169742Y0117503D01*
X0169838Y0117362D01*
X0169930Y0117219D01*
X0170019Y0117074D01*
X0170104Y0116926D01*
X0170186Y0116776D01*
X0170264Y0116625D01*
X0170338Y0116471D01*
X0170409Y0116316D01*
X0170475Y0116159D01*
X0170538Y0116001D01*
X0170597Y0115841D01*
X0170652Y0115679D01*
X0170703Y0115517D01*
X0170750Y0115353D01*
X0170793Y0115188D01*
X0170833Y0115022D01*
X0170868Y0114855D01*
X0170899Y0114688D01*
X0170925Y0114519D01*
X0170948Y0114350D01*
X0170967Y0114181D01*
X0170981Y0114011D01*
X0170992Y0113841D01*
X0170998Y0113670D01*
X0171000Y0113500D01*
X0171000Y0086500D01*
X0170998Y0086330D01*
X0170992Y0086159D01*
X0170981Y0085989D01*
X0170967Y0085819D01*
X0170948Y0085650D01*
X0170925Y0085481D01*
X0170899Y0085312D01*
X0170868Y0085145D01*
X0170833Y0084978D01*
X0170793Y0084812D01*
X0170750Y0084647D01*
X0170703Y0084483D01*
X0170652Y0084321D01*
X0170597Y0084159D01*
X0170538Y0083999D01*
X0170475Y0083841D01*
X0170409Y0083684D01*
X0170338Y0083529D01*
X0170264Y0083375D01*
X0170186Y0083224D01*
X0170104Y0083074D01*
X0170019Y0082926D01*
X0169930Y0082781D01*
X0169838Y0082638D01*
X0169742Y0082497D01*
X0169643Y0082358D01*
X0169540Y0082222D01*
X0169435Y0082088D01*
X0169326Y0081957D01*
X0169213Y0081829D01*
X0169098Y0081703D01*
X0168980Y0081580D01*
X0168859Y0081461D01*
X0168734Y0081344D01*
X0168607Y0081230D01*
X0168478Y0081119D01*
X0168345Y0081012D01*
X0168210Y0080908D01*
X0168073Y0080807D01*
X0167933Y0080709D01*
X0167791Y0080615D01*
X0167647Y0080525D01*
X0167500Y0080438D01*
X0167351Y0080354D01*
X0167201Y0080275D01*
X0167048Y0080199D01*
X0166894Y0080126D01*
X0166738Y0080058D01*
X0166580Y0079993D01*
X0166421Y0079932D01*
X0166260Y0079875D01*
X0166098Y0079822D01*
X0165935Y0079773D01*
X0165771Y0079728D01*
X0165605Y0079687D01*
X0165439Y0079649D01*
X0165271Y0079616D01*
X0165103Y0079588D01*
X0164935Y0079563D01*
X0164766Y0079542D01*
X0164596Y0079525D01*
X0164426Y0079513D01*
X0164256Y0079505D01*
X0164085Y0079501D01*
X0163915Y0079501D01*
X0163744Y0079505D01*
X0163574Y0079513D01*
X0163404Y0079525D01*
X0163234Y0079542D01*
X0163065Y0079563D01*
X0162897Y0079588D01*
X0162729Y0079616D01*
X0162561Y0079649D01*
X0162395Y0079687D01*
X0162229Y0079728D01*
X0162065Y0079773D01*
X0161902Y0079822D01*
X0161740Y0079875D01*
X0161579Y0079932D01*
X0161420Y0079993D01*
X0161262Y0080058D01*
X0161106Y0080126D01*
X0160952Y0080199D01*
X0160799Y0080275D01*
X0160649Y0080354D01*
X0160500Y0080438D01*
X0160353Y0080525D01*
X0160209Y0080615D01*
X0160067Y0080709D01*
X0159927Y0080807D01*
X0159790Y0080908D01*
X0159655Y0081012D01*
X0159522Y0081119D01*
X0159393Y0081230D01*
X0159266Y0081344D01*
X0159141Y0081461D01*
X0159020Y0081580D01*
X0158902Y0081703D01*
X0158787Y0081829D01*
X0158674Y0081957D01*
X0158565Y0082088D01*
X0158460Y0082222D01*
X0158357Y0082358D01*
X0158258Y0082497D01*
X0158162Y0082638D01*
X0158070Y0082781D01*
X0157981Y0082926D01*
X0157896Y0083074D01*
X0157814Y0083224D01*
X0157736Y0083375D01*
X0157662Y0083529D01*
X0157591Y0083684D01*
X0157525Y0083841D01*
X0157462Y0083999D01*
X0157403Y0084159D01*
X0157348Y0084321D01*
X0157297Y0084483D01*
X0157250Y0084647D01*
X0157207Y0084812D01*
X0157167Y0084978D01*
X0157132Y0085145D01*
X0157101Y0085312D01*
X0157075Y0085481D01*
X0157052Y0085650D01*
X0157033Y0085819D01*
X0157019Y0085989D01*
X0157008Y0086159D01*
X0157002Y0086330D01*
X0157000Y0086500D01*
D17*
X0142663Y0083300D02*
X0142663Y0117094D01*
X0142662Y0117094D02*
X0142650Y0117164D01*
X0142633Y0117234D01*
X0142613Y0117302D01*
X0142589Y0117369D01*
X0142562Y0117435D01*
X0142531Y0117500D01*
X0142497Y0117562D01*
X0142459Y0117623D01*
X0142418Y0117681D01*
X0142374Y0117738D01*
X0142327Y0117791D01*
X0142277Y0117842D01*
X0142225Y0117891D01*
X0142170Y0117936D01*
X0142112Y0117979D01*
X0142053Y0118018D01*
X0141991Y0118054D01*
X0141927Y0118086D01*
X0141862Y0118115D01*
X0141796Y0118141D01*
X0141728Y0118162D01*
X0141658Y0118181D01*
X0141589Y0118195D01*
X0141518Y0118205D01*
X0141447Y0118212D01*
X0141376Y0118215D01*
X0141304Y0118214D01*
X0141233Y0118209D01*
X0141162Y0118200D01*
X0141163Y0118200D02*
X0128837Y0118200D01*
X0128761Y0118198D01*
X0128686Y0118192D01*
X0128610Y0118183D01*
X0128535Y0118169D01*
X0128461Y0118152D01*
X0128388Y0118131D01*
X0128316Y0118107D01*
X0128246Y0118079D01*
X0128177Y0118047D01*
X0128109Y0118012D01*
X0128044Y0117973D01*
X0127980Y0117931D01*
X0127919Y0117886D01*
X0127860Y0117838D01*
X0127804Y0117787D01*
X0127750Y0117733D01*
X0127699Y0117677D01*
X0127651Y0117618D01*
X0127606Y0117557D01*
X0127564Y0117493D01*
X0127525Y0117428D01*
X0127490Y0117360D01*
X0127458Y0117291D01*
X0127430Y0117221D01*
X0127406Y0117149D01*
X0127385Y0117076D01*
X0127368Y0117002D01*
X0127354Y0116927D01*
X0127345Y0116851D01*
X0127339Y0116776D01*
X0127337Y0116700D01*
X0127337Y0083300D01*
X0127349Y0083219D01*
X0127364Y0083139D01*
X0127383Y0083060D01*
X0127405Y0082982D01*
X0127432Y0082905D01*
X0127461Y0082829D01*
X0127495Y0082755D01*
X0127532Y0082683D01*
X0127572Y0082612D01*
X0127616Y0082544D01*
X0127663Y0082477D01*
X0127713Y0082413D01*
X0127766Y0082352D01*
X0127822Y0082293D01*
X0127881Y0082236D01*
X0127942Y0082183D01*
X0128006Y0082132D01*
X0128072Y0082085D01*
X0128140Y0082041D01*
X0128210Y0082000D01*
X0128282Y0081962D01*
X0128356Y0081928D01*
X0128432Y0081898D01*
X0128508Y0081871D01*
X0128586Y0081848D01*
X0128665Y0081828D01*
X0128745Y0081813D01*
X0128826Y0081801D01*
X0128906Y0081793D01*
X0128988Y0081789D01*
X0129069Y0081788D01*
X0129150Y0081792D01*
X0129231Y0081799D01*
X0129281Y0081800D02*
X0132600Y0081800D01*
X0132600Y0082000D02*
X0132602Y0082098D01*
X0132608Y0082196D01*
X0132617Y0082294D01*
X0132631Y0082391D01*
X0132648Y0082488D01*
X0132669Y0082584D01*
X0132694Y0082679D01*
X0132722Y0082773D01*
X0132755Y0082865D01*
X0132790Y0082957D01*
X0132830Y0083047D01*
X0132872Y0083135D01*
X0132919Y0083222D01*
X0132968Y0083306D01*
X0133021Y0083389D01*
X0133077Y0083469D01*
X0133137Y0083548D01*
X0133199Y0083624D01*
X0133264Y0083697D01*
X0133332Y0083768D01*
X0133403Y0083836D01*
X0133476Y0083901D01*
X0133552Y0083963D01*
X0133631Y0084023D01*
X0133711Y0084079D01*
X0133794Y0084132D01*
X0133878Y0084181D01*
X0133965Y0084228D01*
X0134053Y0084270D01*
X0134143Y0084310D01*
X0134235Y0084345D01*
X0134327Y0084378D01*
X0134421Y0084406D01*
X0134516Y0084431D01*
X0134612Y0084452D01*
X0134709Y0084469D01*
X0134806Y0084483D01*
X0134904Y0084492D01*
X0135002Y0084498D01*
X0135100Y0084500D01*
X0135198Y0084498D01*
X0135296Y0084492D01*
X0135394Y0084483D01*
X0135491Y0084469D01*
X0135588Y0084452D01*
X0135684Y0084431D01*
X0135779Y0084406D01*
X0135873Y0084378D01*
X0135965Y0084345D01*
X0136057Y0084310D01*
X0136147Y0084270D01*
X0136235Y0084228D01*
X0136322Y0084181D01*
X0136406Y0084132D01*
X0136489Y0084079D01*
X0136569Y0084023D01*
X0136648Y0083963D01*
X0136724Y0083901D01*
X0136797Y0083836D01*
X0136868Y0083768D01*
X0136936Y0083697D01*
X0137001Y0083624D01*
X0137063Y0083548D01*
X0137123Y0083469D01*
X0137179Y0083389D01*
X0137232Y0083306D01*
X0137281Y0083222D01*
X0137328Y0083135D01*
X0137370Y0083047D01*
X0137410Y0082957D01*
X0137445Y0082865D01*
X0137478Y0082773D01*
X0137506Y0082679D01*
X0137531Y0082584D01*
X0137552Y0082488D01*
X0137569Y0082391D01*
X0137583Y0082294D01*
X0137592Y0082196D01*
X0137598Y0082098D01*
X0137600Y0082000D01*
X0137600Y0081800D02*
X0141556Y0081800D01*
X0141556Y0081801D02*
X0141626Y0081813D01*
X0141696Y0081830D01*
X0141764Y0081850D01*
X0141832Y0081873D01*
X0141898Y0081901D01*
X0141962Y0081932D01*
X0142024Y0081966D01*
X0142085Y0082004D01*
X0142144Y0082044D01*
X0142200Y0082088D01*
X0142253Y0082135D01*
X0142305Y0082185D01*
X0142353Y0082238D01*
X0142398Y0082293D01*
X0142441Y0082350D01*
X0142480Y0082410D01*
X0142516Y0082472D01*
X0142548Y0082535D01*
X0142577Y0082600D01*
X0142603Y0082667D01*
X0142625Y0082735D01*
X0142643Y0082804D01*
X0142657Y0082874D01*
X0142667Y0082945D01*
X0142674Y0083016D01*
X0142677Y0083087D01*
X0142676Y0083158D01*
X0142671Y0083230D01*
X0142662Y0083300D01*
X0072663Y0081800D02*
X0072663Y0120594D01*
X0072662Y0120594D02*
X0072650Y0120664D01*
X0072633Y0120734D01*
X0072613Y0120802D01*
X0072589Y0120869D01*
X0072562Y0120935D01*
X0072531Y0121000D01*
X0072497Y0121062D01*
X0072459Y0121123D01*
X0072418Y0121181D01*
X0072374Y0121238D01*
X0072327Y0121291D01*
X0072277Y0121342D01*
X0072225Y0121391D01*
X0072170Y0121436D01*
X0072112Y0121479D01*
X0072053Y0121518D01*
X0071991Y0121554D01*
X0071927Y0121586D01*
X0071862Y0121615D01*
X0071796Y0121641D01*
X0071728Y0121662D01*
X0071658Y0121681D01*
X0071589Y0121695D01*
X0071518Y0121705D01*
X0071447Y0121712D01*
X0071376Y0121715D01*
X0071304Y0121714D01*
X0071233Y0121709D01*
X0071162Y0121700D01*
X0071163Y0121700D02*
X0058837Y0121700D01*
X0058761Y0121698D01*
X0058686Y0121692D01*
X0058610Y0121683D01*
X0058535Y0121669D01*
X0058461Y0121652D01*
X0058388Y0121631D01*
X0058316Y0121607D01*
X0058246Y0121579D01*
X0058177Y0121547D01*
X0058109Y0121512D01*
X0058044Y0121473D01*
X0057980Y0121431D01*
X0057919Y0121386D01*
X0057860Y0121338D01*
X0057804Y0121287D01*
X0057750Y0121233D01*
X0057699Y0121177D01*
X0057651Y0121118D01*
X0057606Y0121057D01*
X0057564Y0120993D01*
X0057525Y0120928D01*
X0057490Y0120860D01*
X0057458Y0120791D01*
X0057430Y0120721D01*
X0057406Y0120649D01*
X0057385Y0120576D01*
X0057368Y0120502D01*
X0057354Y0120427D01*
X0057345Y0120351D01*
X0057339Y0120276D01*
X0057337Y0120200D01*
X0057337Y0081800D01*
X0057349Y0081719D01*
X0057364Y0081639D01*
X0057383Y0081560D01*
X0057405Y0081482D01*
X0057432Y0081405D01*
X0057461Y0081329D01*
X0057495Y0081255D01*
X0057532Y0081183D01*
X0057572Y0081112D01*
X0057616Y0081044D01*
X0057663Y0080977D01*
X0057713Y0080913D01*
X0057766Y0080852D01*
X0057822Y0080793D01*
X0057881Y0080736D01*
X0057942Y0080683D01*
X0058006Y0080632D01*
X0058072Y0080585D01*
X0058140Y0080541D01*
X0058210Y0080500D01*
X0058282Y0080462D01*
X0058356Y0080428D01*
X0058432Y0080398D01*
X0058508Y0080371D01*
X0058586Y0080348D01*
X0058665Y0080328D01*
X0058745Y0080313D01*
X0058826Y0080301D01*
X0058906Y0080293D01*
X0058988Y0080289D01*
X0059069Y0080288D01*
X0059150Y0080292D01*
X0059231Y0080299D01*
X0059281Y0080300D02*
X0062600Y0080300D01*
X0062600Y0080500D02*
X0062602Y0080598D01*
X0062608Y0080696D01*
X0062617Y0080794D01*
X0062631Y0080891D01*
X0062648Y0080988D01*
X0062669Y0081084D01*
X0062694Y0081179D01*
X0062722Y0081273D01*
X0062755Y0081365D01*
X0062790Y0081457D01*
X0062830Y0081547D01*
X0062872Y0081635D01*
X0062919Y0081722D01*
X0062968Y0081806D01*
X0063021Y0081889D01*
X0063077Y0081969D01*
X0063137Y0082048D01*
X0063199Y0082124D01*
X0063264Y0082197D01*
X0063332Y0082268D01*
X0063403Y0082336D01*
X0063476Y0082401D01*
X0063552Y0082463D01*
X0063631Y0082523D01*
X0063711Y0082579D01*
X0063794Y0082632D01*
X0063878Y0082681D01*
X0063965Y0082728D01*
X0064053Y0082770D01*
X0064143Y0082810D01*
X0064235Y0082845D01*
X0064327Y0082878D01*
X0064421Y0082906D01*
X0064516Y0082931D01*
X0064612Y0082952D01*
X0064709Y0082969D01*
X0064806Y0082983D01*
X0064904Y0082992D01*
X0065002Y0082998D01*
X0065100Y0083000D01*
X0065198Y0082998D01*
X0065296Y0082992D01*
X0065394Y0082983D01*
X0065491Y0082969D01*
X0065588Y0082952D01*
X0065684Y0082931D01*
X0065779Y0082906D01*
X0065873Y0082878D01*
X0065965Y0082845D01*
X0066057Y0082810D01*
X0066147Y0082770D01*
X0066235Y0082728D01*
X0066322Y0082681D01*
X0066406Y0082632D01*
X0066489Y0082579D01*
X0066569Y0082523D01*
X0066648Y0082463D01*
X0066724Y0082401D01*
X0066797Y0082336D01*
X0066868Y0082268D01*
X0066936Y0082197D01*
X0067001Y0082124D01*
X0067063Y0082048D01*
X0067123Y0081969D01*
X0067179Y0081889D01*
X0067232Y0081806D01*
X0067281Y0081722D01*
X0067328Y0081635D01*
X0067370Y0081547D01*
X0067410Y0081457D01*
X0067445Y0081365D01*
X0067478Y0081273D01*
X0067506Y0081179D01*
X0067531Y0081084D01*
X0067552Y0080988D01*
X0067569Y0080891D01*
X0067583Y0080794D01*
X0067592Y0080696D01*
X0067598Y0080598D01*
X0067600Y0080500D01*
X0067600Y0080300D02*
X0071556Y0080300D01*
X0071556Y0080301D02*
X0071626Y0080313D01*
X0071696Y0080330D01*
X0071764Y0080350D01*
X0071832Y0080373D01*
X0071898Y0080401D01*
X0071962Y0080432D01*
X0072024Y0080466D01*
X0072085Y0080504D01*
X0072144Y0080544D01*
X0072200Y0080588D01*
X0072253Y0080635D01*
X0072305Y0080685D01*
X0072353Y0080738D01*
X0072398Y0080793D01*
X0072441Y0080850D01*
X0072480Y0080910D01*
X0072516Y0080972D01*
X0072548Y0081035D01*
X0072577Y0081100D01*
X0072603Y0081167D01*
X0072625Y0081235D01*
X0072643Y0081304D01*
X0072657Y0081374D01*
X0072667Y0081445D01*
X0072674Y0081516D01*
X0072677Y0081587D01*
X0072676Y0081658D01*
X0072671Y0081730D01*
X0072662Y0081800D01*
D18*
X0144100Y0082000D03*
M02*
