%
M48
M72
T01C0.0236
T02C0.0240
T03C0.0394
T04C0.0400
T05C0.1102
%
T01
X6900Y3200
X10400Y5200
X12400Y3400
X14600Y3900
X18000Y8000
X13100Y10300
X11700Y11000
T02
X16400Y11000
X16400Y9000
T03
X16795Y2378
X17795Y2378
X17795Y1378
X16795Y1378
X15795Y1378
X14795Y1378
X13795Y1378
X12795Y1378
X11795Y1378
X10795Y1378
X9795Y1378
X8795Y1378
X7795Y1378
X6795Y1378
X5795Y1378
X4795Y1378
X3795Y1378
X3795Y2378
X4795Y2378
X5795Y2378
X6795Y2378
X7795Y2378
X8795Y2378
X9795Y2378
X10795Y2378
X11795Y2378
X12795Y2378
X13795Y2378
X14795Y2378
X15795Y2378
X18795Y2378
X18795Y1378
X19795Y1378
X19795Y2378
X20795Y2378
X20795Y1378
X21795Y1378
X21795Y2378
X22795Y2378
X22795Y1378
T04
X18500Y5000
X18500Y6000
X17500Y6000
X16500Y6000
X16500Y5000
X17500Y5000
X15500Y5000
X15500Y6000
X14500Y6000
X14500Y5000
X3500Y7000
X2500Y7000
X1500Y7000
X1500Y8500
X2500Y8500
X3500Y8500
X3500Y10000
X2500Y10000
X1500Y10000
X1500Y11500
X2500Y11500
X3500Y11500
T05
X1878Y1878
X1878Y21169
X24713Y21169
X24713Y1878
M30
