G75*
%MOIN*%
%OFA0B0*%
%FSLAX25Y25*%
%IPPOS*%
%LPD*%
%AMOC8*
5,1,8,0,0,1.08239X$1,22.5*
%
%ADD10C,0.00000*%
D10*
X0016811Y0005000D02*
X0249094Y0005000D01*
X0249379Y0005003D01*
X0249665Y0005014D01*
X0249950Y0005031D01*
X0250234Y0005055D01*
X0250518Y0005086D01*
X0250801Y0005124D01*
X0251082Y0005169D01*
X0251363Y0005220D01*
X0251643Y0005278D01*
X0251921Y0005343D01*
X0252197Y0005415D01*
X0252471Y0005493D01*
X0252744Y0005578D01*
X0253014Y0005670D01*
X0253282Y0005768D01*
X0253548Y0005872D01*
X0253811Y0005983D01*
X0254071Y0006100D01*
X0254329Y0006223D01*
X0254583Y0006353D01*
X0254834Y0006489D01*
X0255082Y0006630D01*
X0255326Y0006778D01*
X0255567Y0006931D01*
X0255803Y0007091D01*
X0256036Y0007256D01*
X0256265Y0007426D01*
X0256490Y0007602D01*
X0256710Y0007784D01*
X0256926Y0007970D01*
X0257137Y0008162D01*
X0257344Y0008359D01*
X0257546Y0008561D01*
X0257743Y0008768D01*
X0257935Y0008979D01*
X0258121Y0009195D01*
X0258303Y0009415D01*
X0258479Y0009640D01*
X0258649Y0009869D01*
X0258814Y0010102D01*
X0258974Y0010338D01*
X0259127Y0010579D01*
X0259275Y0010823D01*
X0259416Y0011071D01*
X0259552Y0011322D01*
X0259682Y0011576D01*
X0259805Y0011834D01*
X0259922Y0012094D01*
X0260033Y0012357D01*
X0260137Y0012623D01*
X0260235Y0012891D01*
X0260327Y0013161D01*
X0260412Y0013434D01*
X0260490Y0013708D01*
X0260562Y0013984D01*
X0260627Y0014262D01*
X0260685Y0014542D01*
X0260736Y0014823D01*
X0260781Y0015104D01*
X0260819Y0015387D01*
X0260850Y0015671D01*
X0260874Y0015955D01*
X0260891Y0016240D01*
X0260902Y0016526D01*
X0260905Y0016811D01*
X0260906Y0016811D02*
X0260906Y0077835D01*
X0260904Y0077959D01*
X0260898Y0078082D01*
X0260889Y0078206D01*
X0260875Y0078328D01*
X0260858Y0078451D01*
X0260836Y0078573D01*
X0260811Y0078694D01*
X0260782Y0078814D01*
X0260750Y0078933D01*
X0260713Y0079052D01*
X0260673Y0079169D01*
X0260630Y0079284D01*
X0260582Y0079399D01*
X0260531Y0079511D01*
X0260477Y0079622D01*
X0260419Y0079732D01*
X0260358Y0079839D01*
X0260293Y0079945D01*
X0260225Y0080048D01*
X0260154Y0080149D01*
X0260080Y0080248D01*
X0260003Y0080345D01*
X0259922Y0080439D01*
X0259839Y0080530D01*
X0259753Y0080619D01*
X0259664Y0080705D01*
X0259573Y0080788D01*
X0259479Y0080869D01*
X0259382Y0080946D01*
X0259283Y0081020D01*
X0259182Y0081091D01*
X0259079Y0081159D01*
X0258973Y0081224D01*
X0258866Y0081285D01*
X0258756Y0081343D01*
X0258645Y0081397D01*
X0258533Y0081448D01*
X0258418Y0081496D01*
X0258303Y0081539D01*
X0258186Y0081579D01*
X0258067Y0081616D01*
X0257948Y0081648D01*
X0257828Y0081677D01*
X0257707Y0081702D01*
X0257585Y0081724D01*
X0257462Y0081741D01*
X0257340Y0081755D01*
X0257216Y0081764D01*
X0257093Y0081770D01*
X0256969Y0081772D01*
X0253031Y0081772D01*
X0252907Y0081774D01*
X0252784Y0081780D01*
X0252660Y0081789D01*
X0252538Y0081803D01*
X0252415Y0081820D01*
X0252293Y0081842D01*
X0252172Y0081867D01*
X0252052Y0081896D01*
X0251933Y0081928D01*
X0251814Y0081965D01*
X0251697Y0082005D01*
X0251582Y0082048D01*
X0251467Y0082096D01*
X0251355Y0082147D01*
X0251244Y0082201D01*
X0251134Y0082259D01*
X0251027Y0082320D01*
X0250921Y0082385D01*
X0250818Y0082453D01*
X0250717Y0082524D01*
X0250618Y0082598D01*
X0250521Y0082675D01*
X0250427Y0082756D01*
X0250336Y0082839D01*
X0250247Y0082925D01*
X0250161Y0083014D01*
X0250078Y0083105D01*
X0249997Y0083199D01*
X0249920Y0083296D01*
X0249846Y0083395D01*
X0249775Y0083496D01*
X0249707Y0083599D01*
X0249642Y0083705D01*
X0249581Y0083812D01*
X0249523Y0083922D01*
X0249469Y0084033D01*
X0249418Y0084145D01*
X0249370Y0084260D01*
X0249327Y0084375D01*
X0249287Y0084492D01*
X0249250Y0084611D01*
X0249218Y0084730D01*
X0249189Y0084850D01*
X0249164Y0084971D01*
X0249142Y0085093D01*
X0249125Y0085216D01*
X0249111Y0085338D01*
X0249102Y0085462D01*
X0249096Y0085585D01*
X0249094Y0085709D01*
X0249094Y0144764D01*
X0249096Y0144888D01*
X0249102Y0145011D01*
X0249111Y0145135D01*
X0249125Y0145257D01*
X0249142Y0145380D01*
X0249164Y0145502D01*
X0249189Y0145623D01*
X0249218Y0145743D01*
X0249250Y0145862D01*
X0249287Y0145981D01*
X0249327Y0146098D01*
X0249370Y0146213D01*
X0249418Y0146328D01*
X0249469Y0146440D01*
X0249523Y0146551D01*
X0249581Y0146661D01*
X0249642Y0146768D01*
X0249707Y0146874D01*
X0249775Y0146977D01*
X0249846Y0147078D01*
X0249920Y0147177D01*
X0249997Y0147274D01*
X0250078Y0147368D01*
X0250161Y0147459D01*
X0250247Y0147548D01*
X0250336Y0147634D01*
X0250427Y0147717D01*
X0250521Y0147798D01*
X0250618Y0147875D01*
X0250717Y0147949D01*
X0250818Y0148020D01*
X0250921Y0148088D01*
X0251027Y0148153D01*
X0251134Y0148214D01*
X0251244Y0148272D01*
X0251355Y0148326D01*
X0251467Y0148377D01*
X0251582Y0148425D01*
X0251697Y0148468D01*
X0251814Y0148508D01*
X0251933Y0148545D01*
X0252052Y0148577D01*
X0252172Y0148606D01*
X0252293Y0148631D01*
X0252415Y0148653D01*
X0252538Y0148670D01*
X0252660Y0148684D01*
X0252784Y0148693D01*
X0252907Y0148699D01*
X0253031Y0148701D01*
X0256969Y0148701D01*
X0257093Y0148703D01*
X0257216Y0148709D01*
X0257340Y0148718D01*
X0257462Y0148732D01*
X0257585Y0148749D01*
X0257707Y0148771D01*
X0257828Y0148796D01*
X0257948Y0148825D01*
X0258067Y0148857D01*
X0258186Y0148894D01*
X0258303Y0148934D01*
X0258418Y0148977D01*
X0258533Y0149025D01*
X0258645Y0149076D01*
X0258756Y0149130D01*
X0258866Y0149188D01*
X0258973Y0149249D01*
X0259079Y0149314D01*
X0259182Y0149382D01*
X0259283Y0149453D01*
X0259382Y0149527D01*
X0259479Y0149604D01*
X0259573Y0149685D01*
X0259664Y0149768D01*
X0259753Y0149854D01*
X0259839Y0149943D01*
X0259922Y0150034D01*
X0260003Y0150128D01*
X0260080Y0150225D01*
X0260154Y0150324D01*
X0260225Y0150425D01*
X0260293Y0150528D01*
X0260358Y0150634D01*
X0260419Y0150741D01*
X0260477Y0150851D01*
X0260531Y0150962D01*
X0260582Y0151074D01*
X0260630Y0151189D01*
X0260673Y0151304D01*
X0260713Y0151421D01*
X0260750Y0151540D01*
X0260782Y0151659D01*
X0260811Y0151779D01*
X0260836Y0151900D01*
X0260858Y0152022D01*
X0260875Y0152145D01*
X0260889Y0152267D01*
X0260898Y0152391D01*
X0260904Y0152514D01*
X0260906Y0152638D01*
X0260906Y0213661D01*
X0260905Y0213661D02*
X0260902Y0213946D01*
X0260891Y0214232D01*
X0260874Y0214517D01*
X0260850Y0214801D01*
X0260819Y0215085D01*
X0260781Y0215368D01*
X0260736Y0215649D01*
X0260685Y0215930D01*
X0260627Y0216210D01*
X0260562Y0216488D01*
X0260490Y0216764D01*
X0260412Y0217038D01*
X0260327Y0217311D01*
X0260235Y0217581D01*
X0260137Y0217849D01*
X0260033Y0218115D01*
X0259922Y0218378D01*
X0259805Y0218638D01*
X0259682Y0218896D01*
X0259552Y0219150D01*
X0259416Y0219401D01*
X0259275Y0219649D01*
X0259127Y0219893D01*
X0258974Y0220134D01*
X0258814Y0220370D01*
X0258649Y0220603D01*
X0258479Y0220832D01*
X0258303Y0221057D01*
X0258121Y0221277D01*
X0257935Y0221493D01*
X0257743Y0221704D01*
X0257546Y0221911D01*
X0257344Y0222113D01*
X0257137Y0222310D01*
X0256926Y0222502D01*
X0256710Y0222688D01*
X0256490Y0222870D01*
X0256265Y0223046D01*
X0256036Y0223216D01*
X0255803Y0223381D01*
X0255567Y0223541D01*
X0255326Y0223694D01*
X0255082Y0223842D01*
X0254834Y0223983D01*
X0254583Y0224119D01*
X0254329Y0224249D01*
X0254071Y0224372D01*
X0253811Y0224489D01*
X0253548Y0224600D01*
X0253282Y0224704D01*
X0253014Y0224802D01*
X0252744Y0224894D01*
X0252471Y0224979D01*
X0252197Y0225057D01*
X0251921Y0225129D01*
X0251643Y0225194D01*
X0251363Y0225252D01*
X0251082Y0225303D01*
X0250801Y0225348D01*
X0250518Y0225386D01*
X0250234Y0225417D01*
X0249950Y0225441D01*
X0249665Y0225458D01*
X0249379Y0225469D01*
X0249094Y0225472D01*
X0016811Y0225472D01*
X0016526Y0225469D01*
X0016240Y0225458D01*
X0015955Y0225441D01*
X0015671Y0225417D01*
X0015387Y0225386D01*
X0015104Y0225348D01*
X0014823Y0225303D01*
X0014542Y0225252D01*
X0014262Y0225194D01*
X0013984Y0225129D01*
X0013708Y0225057D01*
X0013434Y0224979D01*
X0013161Y0224894D01*
X0012891Y0224802D01*
X0012623Y0224704D01*
X0012357Y0224600D01*
X0012094Y0224489D01*
X0011834Y0224372D01*
X0011576Y0224249D01*
X0011322Y0224119D01*
X0011071Y0223983D01*
X0010823Y0223842D01*
X0010579Y0223694D01*
X0010338Y0223541D01*
X0010102Y0223381D01*
X0009869Y0223216D01*
X0009640Y0223046D01*
X0009415Y0222870D01*
X0009195Y0222688D01*
X0008979Y0222502D01*
X0008768Y0222310D01*
X0008561Y0222113D01*
X0008359Y0221911D01*
X0008162Y0221704D01*
X0007970Y0221493D01*
X0007784Y0221277D01*
X0007602Y0221057D01*
X0007426Y0220832D01*
X0007256Y0220603D01*
X0007091Y0220370D01*
X0006931Y0220134D01*
X0006778Y0219893D01*
X0006630Y0219649D01*
X0006489Y0219401D01*
X0006353Y0219150D01*
X0006223Y0218896D01*
X0006100Y0218638D01*
X0005983Y0218378D01*
X0005872Y0218115D01*
X0005768Y0217849D01*
X0005670Y0217581D01*
X0005578Y0217311D01*
X0005493Y0217038D01*
X0005415Y0216764D01*
X0005343Y0216488D01*
X0005278Y0216210D01*
X0005220Y0215930D01*
X0005169Y0215649D01*
X0005124Y0215368D01*
X0005086Y0215085D01*
X0005055Y0214801D01*
X0005031Y0214517D01*
X0005014Y0214232D01*
X0005003Y0213946D01*
X0005000Y0213661D01*
X0005000Y0016811D01*
X0005003Y0016526D01*
X0005014Y0016240D01*
X0005031Y0015955D01*
X0005055Y0015671D01*
X0005086Y0015387D01*
X0005124Y0015104D01*
X0005169Y0014823D01*
X0005220Y0014542D01*
X0005278Y0014262D01*
X0005343Y0013984D01*
X0005415Y0013708D01*
X0005493Y0013434D01*
X0005578Y0013161D01*
X0005670Y0012891D01*
X0005768Y0012623D01*
X0005872Y0012357D01*
X0005983Y0012094D01*
X0006100Y0011834D01*
X0006223Y0011576D01*
X0006353Y0011322D01*
X0006489Y0011071D01*
X0006630Y0010823D01*
X0006778Y0010579D01*
X0006931Y0010338D01*
X0007091Y0010102D01*
X0007256Y0009869D01*
X0007426Y0009640D01*
X0007602Y0009415D01*
X0007784Y0009195D01*
X0007970Y0008979D01*
X0008162Y0008768D01*
X0008359Y0008561D01*
X0008561Y0008359D01*
X0008768Y0008162D01*
X0008979Y0007970D01*
X0009195Y0007784D01*
X0009415Y0007602D01*
X0009640Y0007426D01*
X0009869Y0007256D01*
X0010102Y0007091D01*
X0010338Y0006931D01*
X0010579Y0006778D01*
X0010823Y0006630D01*
X0011071Y0006489D01*
X0011322Y0006353D01*
X0011576Y0006223D01*
X0011834Y0006100D01*
X0012094Y0005983D01*
X0012357Y0005872D01*
X0012623Y0005768D01*
X0012891Y0005670D01*
X0013161Y0005578D01*
X0013434Y0005493D01*
X0013708Y0005415D01*
X0013984Y0005343D01*
X0014262Y0005278D01*
X0014542Y0005220D01*
X0014823Y0005169D01*
X0015104Y0005124D01*
X0015387Y0005086D01*
X0015671Y0005055D01*
X0015955Y0005031D01*
X0016240Y0005014D01*
X0016526Y0005003D01*
X0016811Y0005000D01*
X0013268Y0018780D02*
X0013270Y0018928D01*
X0013276Y0019076D01*
X0013286Y0019224D01*
X0013300Y0019371D01*
X0013318Y0019518D01*
X0013339Y0019664D01*
X0013365Y0019810D01*
X0013395Y0019955D01*
X0013428Y0020099D01*
X0013466Y0020242D01*
X0013507Y0020384D01*
X0013552Y0020525D01*
X0013600Y0020665D01*
X0013653Y0020804D01*
X0013709Y0020941D01*
X0013769Y0021076D01*
X0013832Y0021210D01*
X0013899Y0021342D01*
X0013970Y0021472D01*
X0014044Y0021600D01*
X0014121Y0021726D01*
X0014202Y0021850D01*
X0014286Y0021972D01*
X0014373Y0022091D01*
X0014464Y0022208D01*
X0014558Y0022323D01*
X0014654Y0022435D01*
X0014754Y0022545D01*
X0014856Y0022651D01*
X0014962Y0022755D01*
X0015070Y0022856D01*
X0015181Y0022954D01*
X0015294Y0023050D01*
X0015410Y0023142D01*
X0015528Y0023231D01*
X0015649Y0023316D01*
X0015772Y0023399D01*
X0015897Y0023478D01*
X0016024Y0023554D01*
X0016153Y0023626D01*
X0016284Y0023695D01*
X0016417Y0023760D01*
X0016552Y0023821D01*
X0016688Y0023879D01*
X0016825Y0023934D01*
X0016964Y0023984D01*
X0017105Y0024031D01*
X0017246Y0024074D01*
X0017389Y0024114D01*
X0017533Y0024149D01*
X0017677Y0024181D01*
X0017823Y0024208D01*
X0017969Y0024232D01*
X0018116Y0024252D01*
X0018263Y0024268D01*
X0018410Y0024280D01*
X0018558Y0024288D01*
X0018706Y0024292D01*
X0018854Y0024292D01*
X0019002Y0024288D01*
X0019150Y0024280D01*
X0019297Y0024268D01*
X0019444Y0024252D01*
X0019591Y0024232D01*
X0019737Y0024208D01*
X0019883Y0024181D01*
X0020027Y0024149D01*
X0020171Y0024114D01*
X0020314Y0024074D01*
X0020455Y0024031D01*
X0020596Y0023984D01*
X0020735Y0023934D01*
X0020872Y0023879D01*
X0021008Y0023821D01*
X0021143Y0023760D01*
X0021276Y0023695D01*
X0021407Y0023626D01*
X0021536Y0023554D01*
X0021663Y0023478D01*
X0021788Y0023399D01*
X0021911Y0023316D01*
X0022032Y0023231D01*
X0022150Y0023142D01*
X0022266Y0023050D01*
X0022379Y0022954D01*
X0022490Y0022856D01*
X0022598Y0022755D01*
X0022704Y0022651D01*
X0022806Y0022545D01*
X0022906Y0022435D01*
X0023002Y0022323D01*
X0023096Y0022208D01*
X0023187Y0022091D01*
X0023274Y0021972D01*
X0023358Y0021850D01*
X0023439Y0021726D01*
X0023516Y0021600D01*
X0023590Y0021472D01*
X0023661Y0021342D01*
X0023728Y0021210D01*
X0023791Y0021076D01*
X0023851Y0020941D01*
X0023907Y0020804D01*
X0023960Y0020665D01*
X0024008Y0020525D01*
X0024053Y0020384D01*
X0024094Y0020242D01*
X0024132Y0020099D01*
X0024165Y0019955D01*
X0024195Y0019810D01*
X0024221Y0019664D01*
X0024242Y0019518D01*
X0024260Y0019371D01*
X0024274Y0019224D01*
X0024284Y0019076D01*
X0024290Y0018928D01*
X0024292Y0018780D01*
X0024290Y0018632D01*
X0024284Y0018484D01*
X0024274Y0018336D01*
X0024260Y0018189D01*
X0024242Y0018042D01*
X0024221Y0017896D01*
X0024195Y0017750D01*
X0024165Y0017605D01*
X0024132Y0017461D01*
X0024094Y0017318D01*
X0024053Y0017176D01*
X0024008Y0017035D01*
X0023960Y0016895D01*
X0023907Y0016756D01*
X0023851Y0016619D01*
X0023791Y0016484D01*
X0023728Y0016350D01*
X0023661Y0016218D01*
X0023590Y0016088D01*
X0023516Y0015960D01*
X0023439Y0015834D01*
X0023358Y0015710D01*
X0023274Y0015588D01*
X0023187Y0015469D01*
X0023096Y0015352D01*
X0023002Y0015237D01*
X0022906Y0015125D01*
X0022806Y0015015D01*
X0022704Y0014909D01*
X0022598Y0014805D01*
X0022490Y0014704D01*
X0022379Y0014606D01*
X0022266Y0014510D01*
X0022150Y0014418D01*
X0022032Y0014329D01*
X0021911Y0014244D01*
X0021788Y0014161D01*
X0021663Y0014082D01*
X0021536Y0014006D01*
X0021407Y0013934D01*
X0021276Y0013865D01*
X0021143Y0013800D01*
X0021008Y0013739D01*
X0020872Y0013681D01*
X0020735Y0013626D01*
X0020596Y0013576D01*
X0020455Y0013529D01*
X0020314Y0013486D01*
X0020171Y0013446D01*
X0020027Y0013411D01*
X0019883Y0013379D01*
X0019737Y0013352D01*
X0019591Y0013328D01*
X0019444Y0013308D01*
X0019297Y0013292D01*
X0019150Y0013280D01*
X0019002Y0013272D01*
X0018854Y0013268D01*
X0018706Y0013268D01*
X0018558Y0013272D01*
X0018410Y0013280D01*
X0018263Y0013292D01*
X0018116Y0013308D01*
X0017969Y0013328D01*
X0017823Y0013352D01*
X0017677Y0013379D01*
X0017533Y0013411D01*
X0017389Y0013446D01*
X0017246Y0013486D01*
X0017105Y0013529D01*
X0016964Y0013576D01*
X0016825Y0013626D01*
X0016688Y0013681D01*
X0016552Y0013739D01*
X0016417Y0013800D01*
X0016284Y0013865D01*
X0016153Y0013934D01*
X0016024Y0014006D01*
X0015897Y0014082D01*
X0015772Y0014161D01*
X0015649Y0014244D01*
X0015528Y0014329D01*
X0015410Y0014418D01*
X0015294Y0014510D01*
X0015181Y0014606D01*
X0015070Y0014704D01*
X0014962Y0014805D01*
X0014856Y0014909D01*
X0014754Y0015015D01*
X0014654Y0015125D01*
X0014558Y0015237D01*
X0014464Y0015352D01*
X0014373Y0015469D01*
X0014286Y0015588D01*
X0014202Y0015710D01*
X0014121Y0015834D01*
X0014044Y0015960D01*
X0013970Y0016088D01*
X0013899Y0016218D01*
X0013832Y0016350D01*
X0013769Y0016484D01*
X0013709Y0016619D01*
X0013653Y0016756D01*
X0013600Y0016895D01*
X0013552Y0017035D01*
X0013507Y0017176D01*
X0013466Y0017318D01*
X0013428Y0017461D01*
X0013395Y0017605D01*
X0013365Y0017750D01*
X0013339Y0017896D01*
X0013318Y0018042D01*
X0013300Y0018189D01*
X0013286Y0018336D01*
X0013276Y0018484D01*
X0013270Y0018632D01*
X0013268Y0018780D01*
X0079803Y0150669D02*
X0079803Y0209724D01*
X0079805Y0209848D01*
X0079811Y0209971D01*
X0079820Y0210095D01*
X0079834Y0210217D01*
X0079851Y0210340D01*
X0079873Y0210462D01*
X0079898Y0210583D01*
X0079927Y0210703D01*
X0079959Y0210822D01*
X0079996Y0210941D01*
X0080036Y0211058D01*
X0080079Y0211173D01*
X0080127Y0211288D01*
X0080178Y0211400D01*
X0080232Y0211511D01*
X0080290Y0211621D01*
X0080351Y0211728D01*
X0080416Y0211834D01*
X0080484Y0211937D01*
X0080555Y0212038D01*
X0080629Y0212137D01*
X0080706Y0212234D01*
X0080787Y0212328D01*
X0080870Y0212419D01*
X0080956Y0212508D01*
X0081045Y0212594D01*
X0081136Y0212677D01*
X0081230Y0212758D01*
X0081327Y0212835D01*
X0081426Y0212909D01*
X0081527Y0212980D01*
X0081630Y0213048D01*
X0081736Y0213113D01*
X0081843Y0213174D01*
X0081953Y0213232D01*
X0082064Y0213286D01*
X0082176Y0213337D01*
X0082291Y0213385D01*
X0082406Y0213428D01*
X0082523Y0213468D01*
X0082642Y0213505D01*
X0082761Y0213537D01*
X0082881Y0213566D01*
X0083002Y0213591D01*
X0083124Y0213613D01*
X0083247Y0213630D01*
X0083369Y0213644D01*
X0083493Y0213653D01*
X0083616Y0213659D01*
X0083740Y0213661D01*
X0083864Y0213659D01*
X0083987Y0213653D01*
X0084111Y0213644D01*
X0084233Y0213630D01*
X0084356Y0213613D01*
X0084478Y0213591D01*
X0084599Y0213566D01*
X0084719Y0213537D01*
X0084838Y0213505D01*
X0084957Y0213468D01*
X0085074Y0213428D01*
X0085189Y0213385D01*
X0085304Y0213337D01*
X0085416Y0213286D01*
X0085527Y0213232D01*
X0085637Y0213174D01*
X0085744Y0213113D01*
X0085850Y0213048D01*
X0085953Y0212980D01*
X0086054Y0212909D01*
X0086153Y0212835D01*
X0086250Y0212758D01*
X0086344Y0212677D01*
X0086435Y0212594D01*
X0086524Y0212508D01*
X0086610Y0212419D01*
X0086693Y0212328D01*
X0086774Y0212234D01*
X0086851Y0212137D01*
X0086925Y0212038D01*
X0086996Y0211937D01*
X0087064Y0211834D01*
X0087129Y0211728D01*
X0087190Y0211621D01*
X0087248Y0211511D01*
X0087302Y0211400D01*
X0087353Y0211288D01*
X0087401Y0211173D01*
X0087444Y0211058D01*
X0087484Y0210941D01*
X0087521Y0210822D01*
X0087553Y0210703D01*
X0087582Y0210583D01*
X0087607Y0210462D01*
X0087629Y0210340D01*
X0087646Y0210217D01*
X0087660Y0210095D01*
X0087669Y0209971D01*
X0087675Y0209848D01*
X0087677Y0209724D01*
X0087677Y0150669D01*
X0083740Y0146732D02*
X0083616Y0146734D01*
X0083493Y0146740D01*
X0083369Y0146749D01*
X0083247Y0146763D01*
X0083124Y0146780D01*
X0083002Y0146802D01*
X0082881Y0146827D01*
X0082761Y0146856D01*
X0082642Y0146888D01*
X0082523Y0146925D01*
X0082406Y0146965D01*
X0082291Y0147008D01*
X0082176Y0147056D01*
X0082064Y0147107D01*
X0081953Y0147161D01*
X0081843Y0147219D01*
X0081736Y0147280D01*
X0081630Y0147345D01*
X0081527Y0147413D01*
X0081426Y0147484D01*
X0081327Y0147558D01*
X0081230Y0147635D01*
X0081136Y0147716D01*
X0081045Y0147799D01*
X0080956Y0147885D01*
X0080870Y0147974D01*
X0080787Y0148065D01*
X0080706Y0148159D01*
X0080629Y0148256D01*
X0080555Y0148355D01*
X0080484Y0148456D01*
X0080416Y0148559D01*
X0080351Y0148665D01*
X0080290Y0148772D01*
X0080232Y0148882D01*
X0080178Y0148993D01*
X0080127Y0149105D01*
X0080079Y0149220D01*
X0080036Y0149335D01*
X0079996Y0149452D01*
X0079959Y0149571D01*
X0079927Y0149690D01*
X0079898Y0149810D01*
X0079873Y0149931D01*
X0079851Y0150053D01*
X0079834Y0150176D01*
X0079820Y0150298D01*
X0079811Y0150422D01*
X0079805Y0150545D01*
X0079803Y0150669D01*
X0083740Y0146732D02*
X0083864Y0146734D01*
X0083987Y0146740D01*
X0084111Y0146749D01*
X0084233Y0146763D01*
X0084356Y0146780D01*
X0084478Y0146802D01*
X0084599Y0146827D01*
X0084719Y0146856D01*
X0084838Y0146888D01*
X0084957Y0146925D01*
X0085074Y0146965D01*
X0085189Y0147008D01*
X0085304Y0147056D01*
X0085416Y0147107D01*
X0085527Y0147161D01*
X0085637Y0147219D01*
X0085744Y0147280D01*
X0085850Y0147345D01*
X0085953Y0147413D01*
X0086054Y0147484D01*
X0086153Y0147558D01*
X0086250Y0147635D01*
X0086344Y0147716D01*
X0086435Y0147799D01*
X0086524Y0147885D01*
X0086610Y0147974D01*
X0086693Y0148065D01*
X0086774Y0148159D01*
X0086851Y0148256D01*
X0086925Y0148355D01*
X0086996Y0148456D01*
X0087064Y0148559D01*
X0087129Y0148665D01*
X0087190Y0148772D01*
X0087248Y0148882D01*
X0087302Y0148993D01*
X0087353Y0149105D01*
X0087401Y0149220D01*
X0087444Y0149335D01*
X0087484Y0149452D01*
X0087521Y0149571D01*
X0087553Y0149690D01*
X0087582Y0149810D01*
X0087607Y0149931D01*
X0087629Y0150053D01*
X0087646Y0150176D01*
X0087660Y0150298D01*
X0087669Y0150422D01*
X0087675Y0150545D01*
X0087677Y0150669D01*
X0013268Y0211693D02*
X0013270Y0211841D01*
X0013276Y0211989D01*
X0013286Y0212137D01*
X0013300Y0212284D01*
X0013318Y0212431D01*
X0013339Y0212577D01*
X0013365Y0212723D01*
X0013395Y0212868D01*
X0013428Y0213012D01*
X0013466Y0213155D01*
X0013507Y0213297D01*
X0013552Y0213438D01*
X0013600Y0213578D01*
X0013653Y0213717D01*
X0013709Y0213854D01*
X0013769Y0213989D01*
X0013832Y0214123D01*
X0013899Y0214255D01*
X0013970Y0214385D01*
X0014044Y0214513D01*
X0014121Y0214639D01*
X0014202Y0214763D01*
X0014286Y0214885D01*
X0014373Y0215004D01*
X0014464Y0215121D01*
X0014558Y0215236D01*
X0014654Y0215348D01*
X0014754Y0215458D01*
X0014856Y0215564D01*
X0014962Y0215668D01*
X0015070Y0215769D01*
X0015181Y0215867D01*
X0015294Y0215963D01*
X0015410Y0216055D01*
X0015528Y0216144D01*
X0015649Y0216229D01*
X0015772Y0216312D01*
X0015897Y0216391D01*
X0016024Y0216467D01*
X0016153Y0216539D01*
X0016284Y0216608D01*
X0016417Y0216673D01*
X0016552Y0216734D01*
X0016688Y0216792D01*
X0016825Y0216847D01*
X0016964Y0216897D01*
X0017105Y0216944D01*
X0017246Y0216987D01*
X0017389Y0217027D01*
X0017533Y0217062D01*
X0017677Y0217094D01*
X0017823Y0217121D01*
X0017969Y0217145D01*
X0018116Y0217165D01*
X0018263Y0217181D01*
X0018410Y0217193D01*
X0018558Y0217201D01*
X0018706Y0217205D01*
X0018854Y0217205D01*
X0019002Y0217201D01*
X0019150Y0217193D01*
X0019297Y0217181D01*
X0019444Y0217165D01*
X0019591Y0217145D01*
X0019737Y0217121D01*
X0019883Y0217094D01*
X0020027Y0217062D01*
X0020171Y0217027D01*
X0020314Y0216987D01*
X0020455Y0216944D01*
X0020596Y0216897D01*
X0020735Y0216847D01*
X0020872Y0216792D01*
X0021008Y0216734D01*
X0021143Y0216673D01*
X0021276Y0216608D01*
X0021407Y0216539D01*
X0021536Y0216467D01*
X0021663Y0216391D01*
X0021788Y0216312D01*
X0021911Y0216229D01*
X0022032Y0216144D01*
X0022150Y0216055D01*
X0022266Y0215963D01*
X0022379Y0215867D01*
X0022490Y0215769D01*
X0022598Y0215668D01*
X0022704Y0215564D01*
X0022806Y0215458D01*
X0022906Y0215348D01*
X0023002Y0215236D01*
X0023096Y0215121D01*
X0023187Y0215004D01*
X0023274Y0214885D01*
X0023358Y0214763D01*
X0023439Y0214639D01*
X0023516Y0214513D01*
X0023590Y0214385D01*
X0023661Y0214255D01*
X0023728Y0214123D01*
X0023791Y0213989D01*
X0023851Y0213854D01*
X0023907Y0213717D01*
X0023960Y0213578D01*
X0024008Y0213438D01*
X0024053Y0213297D01*
X0024094Y0213155D01*
X0024132Y0213012D01*
X0024165Y0212868D01*
X0024195Y0212723D01*
X0024221Y0212577D01*
X0024242Y0212431D01*
X0024260Y0212284D01*
X0024274Y0212137D01*
X0024284Y0211989D01*
X0024290Y0211841D01*
X0024292Y0211693D01*
X0024290Y0211545D01*
X0024284Y0211397D01*
X0024274Y0211249D01*
X0024260Y0211102D01*
X0024242Y0210955D01*
X0024221Y0210809D01*
X0024195Y0210663D01*
X0024165Y0210518D01*
X0024132Y0210374D01*
X0024094Y0210231D01*
X0024053Y0210089D01*
X0024008Y0209948D01*
X0023960Y0209808D01*
X0023907Y0209669D01*
X0023851Y0209532D01*
X0023791Y0209397D01*
X0023728Y0209263D01*
X0023661Y0209131D01*
X0023590Y0209001D01*
X0023516Y0208873D01*
X0023439Y0208747D01*
X0023358Y0208623D01*
X0023274Y0208501D01*
X0023187Y0208382D01*
X0023096Y0208265D01*
X0023002Y0208150D01*
X0022906Y0208038D01*
X0022806Y0207928D01*
X0022704Y0207822D01*
X0022598Y0207718D01*
X0022490Y0207617D01*
X0022379Y0207519D01*
X0022266Y0207423D01*
X0022150Y0207331D01*
X0022032Y0207242D01*
X0021911Y0207157D01*
X0021788Y0207074D01*
X0021663Y0206995D01*
X0021536Y0206919D01*
X0021407Y0206847D01*
X0021276Y0206778D01*
X0021143Y0206713D01*
X0021008Y0206652D01*
X0020872Y0206594D01*
X0020735Y0206539D01*
X0020596Y0206489D01*
X0020455Y0206442D01*
X0020314Y0206399D01*
X0020171Y0206359D01*
X0020027Y0206324D01*
X0019883Y0206292D01*
X0019737Y0206265D01*
X0019591Y0206241D01*
X0019444Y0206221D01*
X0019297Y0206205D01*
X0019150Y0206193D01*
X0019002Y0206185D01*
X0018854Y0206181D01*
X0018706Y0206181D01*
X0018558Y0206185D01*
X0018410Y0206193D01*
X0018263Y0206205D01*
X0018116Y0206221D01*
X0017969Y0206241D01*
X0017823Y0206265D01*
X0017677Y0206292D01*
X0017533Y0206324D01*
X0017389Y0206359D01*
X0017246Y0206399D01*
X0017105Y0206442D01*
X0016964Y0206489D01*
X0016825Y0206539D01*
X0016688Y0206594D01*
X0016552Y0206652D01*
X0016417Y0206713D01*
X0016284Y0206778D01*
X0016153Y0206847D01*
X0016024Y0206919D01*
X0015897Y0206995D01*
X0015772Y0207074D01*
X0015649Y0207157D01*
X0015528Y0207242D01*
X0015410Y0207331D01*
X0015294Y0207423D01*
X0015181Y0207519D01*
X0015070Y0207617D01*
X0014962Y0207718D01*
X0014856Y0207822D01*
X0014754Y0207928D01*
X0014654Y0208038D01*
X0014558Y0208150D01*
X0014464Y0208265D01*
X0014373Y0208382D01*
X0014286Y0208501D01*
X0014202Y0208623D01*
X0014121Y0208747D01*
X0014044Y0208873D01*
X0013970Y0209001D01*
X0013899Y0209131D01*
X0013832Y0209263D01*
X0013769Y0209397D01*
X0013709Y0209532D01*
X0013653Y0209669D01*
X0013600Y0209808D01*
X0013552Y0209948D01*
X0013507Y0210089D01*
X0013466Y0210231D01*
X0013428Y0210374D01*
X0013395Y0210518D01*
X0013365Y0210663D01*
X0013339Y0210809D01*
X0013318Y0210955D01*
X0013300Y0211102D01*
X0013286Y0211249D01*
X0013276Y0211397D01*
X0013270Y0211545D01*
X0013268Y0211693D01*
X0241614Y0211693D02*
X0241616Y0211841D01*
X0241622Y0211989D01*
X0241632Y0212137D01*
X0241646Y0212284D01*
X0241664Y0212431D01*
X0241685Y0212577D01*
X0241711Y0212723D01*
X0241741Y0212868D01*
X0241774Y0213012D01*
X0241812Y0213155D01*
X0241853Y0213297D01*
X0241898Y0213438D01*
X0241946Y0213578D01*
X0241999Y0213717D01*
X0242055Y0213854D01*
X0242115Y0213989D01*
X0242178Y0214123D01*
X0242245Y0214255D01*
X0242316Y0214385D01*
X0242390Y0214513D01*
X0242467Y0214639D01*
X0242548Y0214763D01*
X0242632Y0214885D01*
X0242719Y0215004D01*
X0242810Y0215121D01*
X0242904Y0215236D01*
X0243000Y0215348D01*
X0243100Y0215458D01*
X0243202Y0215564D01*
X0243308Y0215668D01*
X0243416Y0215769D01*
X0243527Y0215867D01*
X0243640Y0215963D01*
X0243756Y0216055D01*
X0243874Y0216144D01*
X0243995Y0216229D01*
X0244118Y0216312D01*
X0244243Y0216391D01*
X0244370Y0216467D01*
X0244499Y0216539D01*
X0244630Y0216608D01*
X0244763Y0216673D01*
X0244898Y0216734D01*
X0245034Y0216792D01*
X0245171Y0216847D01*
X0245310Y0216897D01*
X0245451Y0216944D01*
X0245592Y0216987D01*
X0245735Y0217027D01*
X0245879Y0217062D01*
X0246023Y0217094D01*
X0246169Y0217121D01*
X0246315Y0217145D01*
X0246462Y0217165D01*
X0246609Y0217181D01*
X0246756Y0217193D01*
X0246904Y0217201D01*
X0247052Y0217205D01*
X0247200Y0217205D01*
X0247348Y0217201D01*
X0247496Y0217193D01*
X0247643Y0217181D01*
X0247790Y0217165D01*
X0247937Y0217145D01*
X0248083Y0217121D01*
X0248229Y0217094D01*
X0248373Y0217062D01*
X0248517Y0217027D01*
X0248660Y0216987D01*
X0248801Y0216944D01*
X0248942Y0216897D01*
X0249081Y0216847D01*
X0249218Y0216792D01*
X0249354Y0216734D01*
X0249489Y0216673D01*
X0249622Y0216608D01*
X0249753Y0216539D01*
X0249882Y0216467D01*
X0250009Y0216391D01*
X0250134Y0216312D01*
X0250257Y0216229D01*
X0250378Y0216144D01*
X0250496Y0216055D01*
X0250612Y0215963D01*
X0250725Y0215867D01*
X0250836Y0215769D01*
X0250944Y0215668D01*
X0251050Y0215564D01*
X0251152Y0215458D01*
X0251252Y0215348D01*
X0251348Y0215236D01*
X0251442Y0215121D01*
X0251533Y0215004D01*
X0251620Y0214885D01*
X0251704Y0214763D01*
X0251785Y0214639D01*
X0251862Y0214513D01*
X0251936Y0214385D01*
X0252007Y0214255D01*
X0252074Y0214123D01*
X0252137Y0213989D01*
X0252197Y0213854D01*
X0252253Y0213717D01*
X0252306Y0213578D01*
X0252354Y0213438D01*
X0252399Y0213297D01*
X0252440Y0213155D01*
X0252478Y0213012D01*
X0252511Y0212868D01*
X0252541Y0212723D01*
X0252567Y0212577D01*
X0252588Y0212431D01*
X0252606Y0212284D01*
X0252620Y0212137D01*
X0252630Y0211989D01*
X0252636Y0211841D01*
X0252638Y0211693D01*
X0252636Y0211545D01*
X0252630Y0211397D01*
X0252620Y0211249D01*
X0252606Y0211102D01*
X0252588Y0210955D01*
X0252567Y0210809D01*
X0252541Y0210663D01*
X0252511Y0210518D01*
X0252478Y0210374D01*
X0252440Y0210231D01*
X0252399Y0210089D01*
X0252354Y0209948D01*
X0252306Y0209808D01*
X0252253Y0209669D01*
X0252197Y0209532D01*
X0252137Y0209397D01*
X0252074Y0209263D01*
X0252007Y0209131D01*
X0251936Y0209001D01*
X0251862Y0208873D01*
X0251785Y0208747D01*
X0251704Y0208623D01*
X0251620Y0208501D01*
X0251533Y0208382D01*
X0251442Y0208265D01*
X0251348Y0208150D01*
X0251252Y0208038D01*
X0251152Y0207928D01*
X0251050Y0207822D01*
X0250944Y0207718D01*
X0250836Y0207617D01*
X0250725Y0207519D01*
X0250612Y0207423D01*
X0250496Y0207331D01*
X0250378Y0207242D01*
X0250257Y0207157D01*
X0250134Y0207074D01*
X0250009Y0206995D01*
X0249882Y0206919D01*
X0249753Y0206847D01*
X0249622Y0206778D01*
X0249489Y0206713D01*
X0249354Y0206652D01*
X0249218Y0206594D01*
X0249081Y0206539D01*
X0248942Y0206489D01*
X0248801Y0206442D01*
X0248660Y0206399D01*
X0248517Y0206359D01*
X0248373Y0206324D01*
X0248229Y0206292D01*
X0248083Y0206265D01*
X0247937Y0206241D01*
X0247790Y0206221D01*
X0247643Y0206205D01*
X0247496Y0206193D01*
X0247348Y0206185D01*
X0247200Y0206181D01*
X0247052Y0206181D01*
X0246904Y0206185D01*
X0246756Y0206193D01*
X0246609Y0206205D01*
X0246462Y0206221D01*
X0246315Y0206241D01*
X0246169Y0206265D01*
X0246023Y0206292D01*
X0245879Y0206324D01*
X0245735Y0206359D01*
X0245592Y0206399D01*
X0245451Y0206442D01*
X0245310Y0206489D01*
X0245171Y0206539D01*
X0245034Y0206594D01*
X0244898Y0206652D01*
X0244763Y0206713D01*
X0244630Y0206778D01*
X0244499Y0206847D01*
X0244370Y0206919D01*
X0244243Y0206995D01*
X0244118Y0207074D01*
X0243995Y0207157D01*
X0243874Y0207242D01*
X0243756Y0207331D01*
X0243640Y0207423D01*
X0243527Y0207519D01*
X0243416Y0207617D01*
X0243308Y0207718D01*
X0243202Y0207822D01*
X0243100Y0207928D01*
X0243000Y0208038D01*
X0242904Y0208150D01*
X0242810Y0208265D01*
X0242719Y0208382D01*
X0242632Y0208501D01*
X0242548Y0208623D01*
X0242467Y0208747D01*
X0242390Y0208873D01*
X0242316Y0209001D01*
X0242245Y0209131D01*
X0242178Y0209263D01*
X0242115Y0209397D01*
X0242055Y0209532D01*
X0241999Y0209669D01*
X0241946Y0209808D01*
X0241898Y0209948D01*
X0241853Y0210089D01*
X0241812Y0210231D01*
X0241774Y0210374D01*
X0241741Y0210518D01*
X0241711Y0210663D01*
X0241685Y0210809D01*
X0241664Y0210955D01*
X0241646Y0211102D01*
X0241632Y0211249D01*
X0241622Y0211397D01*
X0241616Y0211545D01*
X0241614Y0211693D01*
X0241614Y0018780D02*
X0241616Y0018928D01*
X0241622Y0019076D01*
X0241632Y0019224D01*
X0241646Y0019371D01*
X0241664Y0019518D01*
X0241685Y0019664D01*
X0241711Y0019810D01*
X0241741Y0019955D01*
X0241774Y0020099D01*
X0241812Y0020242D01*
X0241853Y0020384D01*
X0241898Y0020525D01*
X0241946Y0020665D01*
X0241999Y0020804D01*
X0242055Y0020941D01*
X0242115Y0021076D01*
X0242178Y0021210D01*
X0242245Y0021342D01*
X0242316Y0021472D01*
X0242390Y0021600D01*
X0242467Y0021726D01*
X0242548Y0021850D01*
X0242632Y0021972D01*
X0242719Y0022091D01*
X0242810Y0022208D01*
X0242904Y0022323D01*
X0243000Y0022435D01*
X0243100Y0022545D01*
X0243202Y0022651D01*
X0243308Y0022755D01*
X0243416Y0022856D01*
X0243527Y0022954D01*
X0243640Y0023050D01*
X0243756Y0023142D01*
X0243874Y0023231D01*
X0243995Y0023316D01*
X0244118Y0023399D01*
X0244243Y0023478D01*
X0244370Y0023554D01*
X0244499Y0023626D01*
X0244630Y0023695D01*
X0244763Y0023760D01*
X0244898Y0023821D01*
X0245034Y0023879D01*
X0245171Y0023934D01*
X0245310Y0023984D01*
X0245451Y0024031D01*
X0245592Y0024074D01*
X0245735Y0024114D01*
X0245879Y0024149D01*
X0246023Y0024181D01*
X0246169Y0024208D01*
X0246315Y0024232D01*
X0246462Y0024252D01*
X0246609Y0024268D01*
X0246756Y0024280D01*
X0246904Y0024288D01*
X0247052Y0024292D01*
X0247200Y0024292D01*
X0247348Y0024288D01*
X0247496Y0024280D01*
X0247643Y0024268D01*
X0247790Y0024252D01*
X0247937Y0024232D01*
X0248083Y0024208D01*
X0248229Y0024181D01*
X0248373Y0024149D01*
X0248517Y0024114D01*
X0248660Y0024074D01*
X0248801Y0024031D01*
X0248942Y0023984D01*
X0249081Y0023934D01*
X0249218Y0023879D01*
X0249354Y0023821D01*
X0249489Y0023760D01*
X0249622Y0023695D01*
X0249753Y0023626D01*
X0249882Y0023554D01*
X0250009Y0023478D01*
X0250134Y0023399D01*
X0250257Y0023316D01*
X0250378Y0023231D01*
X0250496Y0023142D01*
X0250612Y0023050D01*
X0250725Y0022954D01*
X0250836Y0022856D01*
X0250944Y0022755D01*
X0251050Y0022651D01*
X0251152Y0022545D01*
X0251252Y0022435D01*
X0251348Y0022323D01*
X0251442Y0022208D01*
X0251533Y0022091D01*
X0251620Y0021972D01*
X0251704Y0021850D01*
X0251785Y0021726D01*
X0251862Y0021600D01*
X0251936Y0021472D01*
X0252007Y0021342D01*
X0252074Y0021210D01*
X0252137Y0021076D01*
X0252197Y0020941D01*
X0252253Y0020804D01*
X0252306Y0020665D01*
X0252354Y0020525D01*
X0252399Y0020384D01*
X0252440Y0020242D01*
X0252478Y0020099D01*
X0252511Y0019955D01*
X0252541Y0019810D01*
X0252567Y0019664D01*
X0252588Y0019518D01*
X0252606Y0019371D01*
X0252620Y0019224D01*
X0252630Y0019076D01*
X0252636Y0018928D01*
X0252638Y0018780D01*
X0252636Y0018632D01*
X0252630Y0018484D01*
X0252620Y0018336D01*
X0252606Y0018189D01*
X0252588Y0018042D01*
X0252567Y0017896D01*
X0252541Y0017750D01*
X0252511Y0017605D01*
X0252478Y0017461D01*
X0252440Y0017318D01*
X0252399Y0017176D01*
X0252354Y0017035D01*
X0252306Y0016895D01*
X0252253Y0016756D01*
X0252197Y0016619D01*
X0252137Y0016484D01*
X0252074Y0016350D01*
X0252007Y0016218D01*
X0251936Y0016088D01*
X0251862Y0015960D01*
X0251785Y0015834D01*
X0251704Y0015710D01*
X0251620Y0015588D01*
X0251533Y0015469D01*
X0251442Y0015352D01*
X0251348Y0015237D01*
X0251252Y0015125D01*
X0251152Y0015015D01*
X0251050Y0014909D01*
X0250944Y0014805D01*
X0250836Y0014704D01*
X0250725Y0014606D01*
X0250612Y0014510D01*
X0250496Y0014418D01*
X0250378Y0014329D01*
X0250257Y0014244D01*
X0250134Y0014161D01*
X0250009Y0014082D01*
X0249882Y0014006D01*
X0249753Y0013934D01*
X0249622Y0013865D01*
X0249489Y0013800D01*
X0249354Y0013739D01*
X0249218Y0013681D01*
X0249081Y0013626D01*
X0248942Y0013576D01*
X0248801Y0013529D01*
X0248660Y0013486D01*
X0248517Y0013446D01*
X0248373Y0013411D01*
X0248229Y0013379D01*
X0248083Y0013352D01*
X0247937Y0013328D01*
X0247790Y0013308D01*
X0247643Y0013292D01*
X0247496Y0013280D01*
X0247348Y0013272D01*
X0247200Y0013268D01*
X0247052Y0013268D01*
X0246904Y0013272D01*
X0246756Y0013280D01*
X0246609Y0013292D01*
X0246462Y0013308D01*
X0246315Y0013328D01*
X0246169Y0013352D01*
X0246023Y0013379D01*
X0245879Y0013411D01*
X0245735Y0013446D01*
X0245592Y0013486D01*
X0245451Y0013529D01*
X0245310Y0013576D01*
X0245171Y0013626D01*
X0245034Y0013681D01*
X0244898Y0013739D01*
X0244763Y0013800D01*
X0244630Y0013865D01*
X0244499Y0013934D01*
X0244370Y0014006D01*
X0244243Y0014082D01*
X0244118Y0014161D01*
X0243995Y0014244D01*
X0243874Y0014329D01*
X0243756Y0014418D01*
X0243640Y0014510D01*
X0243527Y0014606D01*
X0243416Y0014704D01*
X0243308Y0014805D01*
X0243202Y0014909D01*
X0243100Y0015015D01*
X0243000Y0015125D01*
X0242904Y0015237D01*
X0242810Y0015352D01*
X0242719Y0015469D01*
X0242632Y0015588D01*
X0242548Y0015710D01*
X0242467Y0015834D01*
X0242390Y0015960D01*
X0242316Y0016088D01*
X0242245Y0016218D01*
X0242178Y0016350D01*
X0242115Y0016484D01*
X0242055Y0016619D01*
X0241999Y0016756D01*
X0241946Y0016895D01*
X0241898Y0017035D01*
X0241853Y0017176D01*
X0241812Y0017318D01*
X0241774Y0017461D01*
X0241741Y0017605D01*
X0241711Y0017750D01*
X0241685Y0017896D01*
X0241664Y0018042D01*
X0241646Y0018189D01*
X0241632Y0018336D01*
X0241622Y0018484D01*
X0241616Y0018632D01*
X0241614Y0018780D01*
M02*
