G75*
%MOIN*%
%OFA0B0*%
%FSLAX25Y25*%
%IPPOS*%
%LPD*%
%AMOC8*
5,1,8,0,0,1.08239X$1,22.5*
%
%ADD10R,0.05131X0.04737*%
%ADD11C,0.00316*%
%ADD12R,0.05524X0.05524*%
%ADD13C,0.05200*%
%ADD14R,0.05918X0.06706*%
%ADD15R,0.06706X0.05918*%
%ADD16R,0.06737X0.06737*%
%ADD17OC8,0.06737*%
%ADD18C,0.06737*%
%ADD19C,0.11824*%
%ADD20R,0.05400X0.07100*%
%ADD21R,0.00600X0.07200*%
%ADD22OC8,0.06800*%
%ADD23C,0.06800*%
%ADD24R,0.05524X0.03162*%
%ADD25C,0.04762*%
D10*
X0124654Y0073000D03*
X0131346Y0073000D03*
X0179654Y0090000D03*
X0186346Y0090000D03*
X0186346Y0110000D03*
X0179654Y0110000D03*
D11*
X0082163Y0054328D02*
X0082163Y0049120D01*
X0079317Y0049120D01*
X0079317Y0054328D01*
X0082163Y0054328D01*
X0082163Y0049435D02*
X0079317Y0049435D01*
X0079317Y0049750D02*
X0082163Y0049750D01*
X0082163Y0050065D02*
X0079317Y0050065D01*
X0079317Y0050380D02*
X0082163Y0050380D01*
X0082163Y0050695D02*
X0079317Y0050695D01*
X0079317Y0051010D02*
X0082163Y0051010D01*
X0082163Y0051325D02*
X0079317Y0051325D01*
X0079317Y0051640D02*
X0082163Y0051640D01*
X0082163Y0051955D02*
X0079317Y0051955D01*
X0079317Y0052270D02*
X0082163Y0052270D01*
X0082163Y0052585D02*
X0079317Y0052585D01*
X0079317Y0052900D02*
X0082163Y0052900D01*
X0082163Y0053215D02*
X0079317Y0053215D01*
X0079317Y0053530D02*
X0082163Y0053530D01*
X0082163Y0053845D02*
X0079317Y0053845D01*
X0079317Y0054160D02*
X0082163Y0054160D01*
X0074683Y0054328D02*
X0074683Y0049120D01*
X0071837Y0049120D01*
X0071837Y0054328D01*
X0074683Y0054328D01*
X0074683Y0049435D02*
X0071837Y0049435D01*
X0071837Y0049750D02*
X0074683Y0049750D01*
X0074683Y0050065D02*
X0071837Y0050065D01*
X0071837Y0050380D02*
X0074683Y0050380D01*
X0074683Y0050695D02*
X0071837Y0050695D01*
X0071837Y0051010D02*
X0074683Y0051010D01*
X0074683Y0051325D02*
X0071837Y0051325D01*
X0071837Y0051640D02*
X0074683Y0051640D01*
X0074683Y0051955D02*
X0071837Y0051955D01*
X0071837Y0052270D02*
X0074683Y0052270D01*
X0074683Y0052585D02*
X0071837Y0052585D01*
X0071837Y0052900D02*
X0074683Y0052900D01*
X0074683Y0053215D02*
X0071837Y0053215D01*
X0071837Y0053530D02*
X0074683Y0053530D01*
X0074683Y0053845D02*
X0071837Y0053845D01*
X0071837Y0054160D02*
X0074683Y0054160D01*
X0074683Y0044880D02*
X0074683Y0039672D01*
X0071837Y0039672D01*
X0071837Y0044880D01*
X0074683Y0044880D01*
X0074683Y0039987D02*
X0071837Y0039987D01*
X0071837Y0040302D02*
X0074683Y0040302D01*
X0074683Y0040617D02*
X0071837Y0040617D01*
X0071837Y0040932D02*
X0074683Y0040932D01*
X0074683Y0041247D02*
X0071837Y0041247D01*
X0071837Y0041562D02*
X0074683Y0041562D01*
X0074683Y0041877D02*
X0071837Y0041877D01*
X0071837Y0042192D02*
X0074683Y0042192D01*
X0074683Y0042507D02*
X0071837Y0042507D01*
X0071837Y0042822D02*
X0074683Y0042822D01*
X0074683Y0043137D02*
X0071837Y0043137D01*
X0071837Y0043452D02*
X0074683Y0043452D01*
X0074683Y0043767D02*
X0071837Y0043767D01*
X0071837Y0044082D02*
X0074683Y0044082D01*
X0074683Y0044397D02*
X0071837Y0044397D01*
X0071837Y0044712D02*
X0074683Y0044712D01*
X0078423Y0044880D02*
X0078423Y0039672D01*
X0075577Y0039672D01*
X0075577Y0044880D01*
X0078423Y0044880D01*
X0078423Y0039987D02*
X0075577Y0039987D01*
X0075577Y0040302D02*
X0078423Y0040302D01*
X0078423Y0040617D02*
X0075577Y0040617D01*
X0075577Y0040932D02*
X0078423Y0040932D01*
X0078423Y0041247D02*
X0075577Y0041247D01*
X0075577Y0041562D02*
X0078423Y0041562D01*
X0078423Y0041877D02*
X0075577Y0041877D01*
X0075577Y0042192D02*
X0078423Y0042192D01*
X0078423Y0042507D02*
X0075577Y0042507D01*
X0075577Y0042822D02*
X0078423Y0042822D01*
X0078423Y0043137D02*
X0075577Y0043137D01*
X0075577Y0043452D02*
X0078423Y0043452D01*
X0078423Y0043767D02*
X0075577Y0043767D01*
X0075577Y0044082D02*
X0078423Y0044082D01*
X0078423Y0044397D02*
X0075577Y0044397D01*
X0075577Y0044712D02*
X0078423Y0044712D01*
X0082163Y0044880D02*
X0082163Y0039672D01*
X0079317Y0039672D01*
X0079317Y0044880D01*
X0082163Y0044880D01*
X0082163Y0039987D02*
X0079317Y0039987D01*
X0079317Y0040302D02*
X0082163Y0040302D01*
X0082163Y0040617D02*
X0079317Y0040617D01*
X0079317Y0040932D02*
X0082163Y0040932D01*
X0082163Y0041247D02*
X0079317Y0041247D01*
X0079317Y0041562D02*
X0082163Y0041562D01*
X0082163Y0041877D02*
X0079317Y0041877D01*
X0079317Y0042192D02*
X0082163Y0042192D01*
X0082163Y0042507D02*
X0079317Y0042507D01*
X0079317Y0042822D02*
X0082163Y0042822D01*
X0082163Y0043137D02*
X0079317Y0043137D01*
X0079317Y0043452D02*
X0082163Y0043452D01*
X0082163Y0043767D02*
X0079317Y0043767D01*
X0079317Y0044082D02*
X0082163Y0044082D01*
X0082163Y0044397D02*
X0079317Y0044397D01*
X0079317Y0044712D02*
X0082163Y0044712D01*
D12*
X0169866Y0034000D03*
X0178134Y0034000D03*
D13*
X0166200Y0090000D02*
X0161800Y0090000D01*
X0161800Y0110000D02*
X0166200Y0110000D01*
D14*
X0147740Y0073000D03*
X0140260Y0073000D03*
X0154260Y0034000D03*
X0161740Y0034000D03*
X0079740Y0064000D03*
X0072260Y0064000D03*
D15*
X0062000Y0049740D03*
X0062000Y0042260D03*
X0092000Y0042260D03*
X0092000Y0049740D03*
D16*
X0227953Y0023780D03*
D17*
X0217953Y0023780D03*
X0207953Y0023780D03*
X0197953Y0023780D03*
X0187953Y0023780D03*
X0177953Y0023780D03*
X0167953Y0023780D03*
X0157953Y0023780D03*
X0147953Y0023780D03*
X0137953Y0023780D03*
X0127953Y0023780D03*
X0117953Y0023780D03*
X0107953Y0023780D03*
X0097953Y0023780D03*
X0087953Y0023780D03*
X0077953Y0023780D03*
X0067953Y0023780D03*
X0057953Y0023780D03*
X0047953Y0023780D03*
X0037953Y0023780D03*
X0047953Y0013780D03*
X0057953Y0013780D03*
X0067953Y0013780D03*
X0077953Y0013780D03*
X0087953Y0013780D03*
X0097953Y0013780D03*
X0107953Y0013780D03*
X0117953Y0013780D03*
X0127953Y0013780D03*
X0137953Y0013780D03*
X0147953Y0013780D03*
X0157953Y0013780D03*
X0167953Y0013780D03*
X0177953Y0013780D03*
X0187953Y0013780D03*
X0197953Y0013780D03*
X0207953Y0013780D03*
X0217953Y0013780D03*
X0227953Y0013780D03*
D18*
X0037953Y0013780D03*
D19*
X0018780Y0018780D03*
X0018780Y0211693D03*
X0247126Y0211693D03*
X0247126Y0018780D03*
D20*
X0097000Y0064000D03*
X0091000Y0064000D03*
D21*
X0094000Y0064000D03*
D22*
X0145000Y0060000D03*
X0145000Y0050000D03*
X0155000Y0050000D03*
X0155000Y0060000D03*
X0165000Y0060000D03*
X0175000Y0060000D03*
X0175000Y0050000D03*
X0165000Y0050000D03*
X0185000Y0050000D03*
X0185000Y0060000D03*
D23*
X0035000Y0067000D02*
X0035000Y0073000D01*
X0035000Y0082000D02*
X0035000Y0088000D01*
X0035000Y0097000D02*
X0035000Y0103000D01*
X0035000Y0112000D02*
X0035000Y0118000D01*
X0025000Y0118000D02*
X0025000Y0112000D01*
X0025000Y0103000D02*
X0025000Y0097000D01*
X0025000Y0088000D02*
X0025000Y0082000D01*
X0025000Y0073000D02*
X0025000Y0067000D01*
X0015000Y0067000D02*
X0015000Y0073000D01*
X0015000Y0082000D02*
X0015000Y0088000D01*
X0015000Y0097000D02*
X0015000Y0103000D01*
X0015000Y0112000D02*
X0015000Y0118000D01*
D24*
X0053976Y0118500D03*
X0053976Y0113500D03*
X0053976Y0108500D03*
X0053976Y0103500D03*
X0053976Y0098500D03*
X0053976Y0093500D03*
X0053976Y0088500D03*
X0053976Y0083500D03*
X0076024Y0083500D03*
X0076024Y0088500D03*
X0076024Y0093500D03*
X0076024Y0098500D03*
X0076024Y0103500D03*
X0076024Y0108500D03*
X0076024Y0113500D03*
X0076024Y0118500D03*
X0123976Y0115000D03*
X0123976Y0110000D03*
X0123976Y0105000D03*
X0123976Y0100000D03*
X0123976Y0095000D03*
X0123976Y0090000D03*
X0123976Y0085000D03*
X0146024Y0085000D03*
X0146024Y0090000D03*
X0146024Y0095000D03*
X0146024Y0100000D03*
X0146024Y0105000D03*
X0146024Y0110000D03*
X0146024Y0115000D03*
D25*
X0131000Y0103000D03*
X0117000Y0110000D03*
X0180000Y0080000D03*
X0146000Y0039000D03*
X0124000Y0034000D03*
X0104000Y0052000D03*
X0069000Y0032000D03*
M02*
