G75*
%MOIN*%
%OFA0B0*%
%FSLAX25Y25*%
%IPPOS*%
%LPD*%
%AMOC8*
5,1,8,0,0,1.08239X$1,22.5*
%
%ADD10C,0.04400*%
%ADD11R,0.05937X0.05937*%
%ADD12OC8,0.05937*%
%ADD13C,0.05937*%
%ADD14OC8,0.06000*%
%ADD15C,0.06000*%
%ADD16C,0.03962*%
%ADD17C,0.01600*%
%ADD18C,0.01200*%
%ADD19C,0.04000*%
D10*
X0161800Y0090000D02*
X0166200Y0090000D01*
X0166200Y0110000D02*
X0161800Y0110000D01*
D11*
X0227953Y0023780D03*
D12*
X0217953Y0023780D03*
X0207953Y0023780D03*
X0197953Y0023780D03*
X0187953Y0023780D03*
X0177953Y0023780D03*
X0167953Y0023780D03*
X0157953Y0023780D03*
X0147953Y0023780D03*
X0137953Y0023780D03*
X0127953Y0023780D03*
X0117953Y0023780D03*
X0107953Y0023780D03*
X0097953Y0023780D03*
X0087953Y0023780D03*
X0077953Y0023780D03*
X0067953Y0023780D03*
X0057953Y0023780D03*
X0047953Y0023780D03*
X0037953Y0023780D03*
X0047953Y0013780D03*
X0057953Y0013780D03*
X0067953Y0013780D03*
X0077953Y0013780D03*
X0087953Y0013780D03*
X0097953Y0013780D03*
X0107953Y0013780D03*
X0117953Y0013780D03*
X0127953Y0013780D03*
X0137953Y0013780D03*
X0147953Y0013780D03*
X0157953Y0013780D03*
X0167953Y0013780D03*
X0177953Y0013780D03*
X0187953Y0013780D03*
X0197953Y0013780D03*
X0207953Y0013780D03*
X0217953Y0013780D03*
X0227953Y0013780D03*
D13*
X0037953Y0013780D03*
D14*
X0145000Y0050000D03*
X0145000Y0060000D03*
X0155000Y0060000D03*
X0155000Y0050000D03*
X0165000Y0050000D03*
X0175000Y0050000D03*
X0175000Y0060000D03*
X0165000Y0060000D03*
X0185000Y0060000D03*
X0185000Y0050000D03*
D15*
X0035000Y0067000D02*
X0035000Y0073000D01*
X0035000Y0082000D02*
X0035000Y0088000D01*
X0035000Y0097000D02*
X0035000Y0103000D01*
X0035000Y0112000D02*
X0035000Y0118000D01*
X0025000Y0118000D02*
X0025000Y0112000D01*
X0025000Y0103000D02*
X0025000Y0097000D01*
X0025000Y0088000D02*
X0025000Y0082000D01*
X0025000Y0073000D02*
X0025000Y0067000D01*
X0015000Y0067000D02*
X0015000Y0073000D01*
X0015000Y0082000D02*
X0015000Y0088000D01*
X0015000Y0097000D02*
X0015000Y0103000D01*
X0015000Y0112000D02*
X0015000Y0118000D01*
D16*
X0104000Y0052000D03*
X0124000Y0034000D03*
X0146000Y0039000D03*
X0180000Y0080000D03*
X0131000Y0103000D03*
X0117000Y0110000D03*
X0069000Y0032000D03*
D17*
X0069000Y0031000D01*
X0073000Y0027000D01*
X0073000Y0021000D01*
X0075000Y0019000D01*
X0092732Y0019000D01*
X0097953Y0013780D01*
X0107953Y0023780D02*
X0104000Y0027732D01*
X0104000Y0052000D01*
X0117953Y0047953D02*
X0124000Y0054000D01*
X0140000Y0054000D01*
X0141000Y0055000D01*
X0150000Y0055000D01*
X0155000Y0060000D01*
X0154000Y0060000D01*
X0142000Y0072000D01*
X0138000Y0072000D01*
X0132000Y0078000D01*
X0132000Y0092000D01*
X0131000Y0093000D01*
X0131000Y0103000D01*
X0117000Y0110000D02*
X0117000Y0065000D01*
X0122000Y0060000D01*
X0145000Y0060000D01*
X0150000Y0043000D02*
X0190000Y0043000D01*
X0193000Y0046000D01*
X0193000Y0057000D01*
X0190000Y0060000D01*
X0185000Y0060000D01*
X0180000Y0056000D02*
X0180000Y0080000D01*
X0180000Y0056000D02*
X0175000Y0050000D01*
X0150000Y0043000D02*
X0146000Y0039000D01*
X0137732Y0034000D02*
X0147953Y0023780D01*
X0142000Y0019000D02*
X0183173Y0019000D01*
X0187953Y0023780D01*
X0142000Y0019000D02*
X0137953Y0014953D01*
X0137953Y0013780D01*
X0117953Y0023780D02*
X0117953Y0047953D01*
X0124000Y0034000D02*
X0137732Y0034000D01*
D18*
X0029000Y0052000D02*
X0029000Y0010000D01*
X0029400Y0009600D01*
X0036628Y0009600D01*
X0035478Y0010076D01*
X0034249Y0011305D01*
X0033584Y0012911D01*
X0033584Y0014648D01*
X0034249Y0016254D01*
X0035478Y0017483D01*
X0037084Y0018148D01*
X0038822Y0018148D01*
X0040427Y0017483D01*
X0041656Y0016254D01*
X0042321Y0014648D01*
X0042321Y0012911D01*
X0041656Y0011305D01*
X0040427Y0010076D01*
X0039278Y0009600D01*
X0045954Y0009600D01*
X0043584Y0011970D01*
X0043584Y0015589D01*
X0046143Y0018148D01*
X0049762Y0018148D01*
X0052321Y0015589D01*
X0052321Y0011970D01*
X0049951Y0009600D01*
X0055954Y0009600D01*
X0053584Y0011970D01*
X0053584Y0015589D01*
X0056143Y0018148D01*
X0059762Y0018148D01*
X0062321Y0015589D01*
X0062321Y0011970D01*
X0059951Y0009600D01*
X0065671Y0009600D01*
X0063384Y0011887D01*
X0063384Y0013395D01*
X0067568Y0013395D01*
X0067568Y0014164D01*
X0063384Y0014164D01*
X0063384Y0015672D01*
X0066060Y0018348D01*
X0067568Y0018348D01*
X0067568Y0014164D01*
X0068337Y0014164D01*
X0068337Y0018348D01*
X0069845Y0018348D01*
X0072521Y0015672D01*
X0072521Y0014164D01*
X0068337Y0014164D01*
X0068337Y0013395D01*
X0072521Y0013395D01*
X0072521Y0011887D01*
X0070234Y0009600D01*
X0075954Y0009600D01*
X0073584Y0011970D01*
X0073584Y0015589D01*
X0074795Y0016800D01*
X0074089Y0016800D01*
X0072800Y0018089D01*
X0070800Y0020089D01*
X0070800Y0020449D01*
X0069762Y0019411D01*
X0066143Y0019411D01*
X0063584Y0021970D01*
X0063584Y0025589D01*
X0066143Y0028148D01*
X0068741Y0028148D01*
X0068229Y0028660D01*
X0067085Y0029134D01*
X0066134Y0030085D01*
X0065619Y0031327D01*
X0065619Y0032673D01*
X0066134Y0033915D01*
X0067085Y0034866D01*
X0068327Y0035381D01*
X0069673Y0035381D01*
X0070915Y0034866D01*
X0071866Y0033915D01*
X0072381Y0032673D01*
X0072381Y0031327D01*
X0072206Y0030905D01*
X0073911Y0029200D01*
X0075200Y0027911D01*
X0075200Y0027205D01*
X0076143Y0028148D01*
X0079762Y0028148D01*
X0082321Y0025589D01*
X0082321Y0021970D01*
X0081551Y0021200D01*
X0084354Y0021200D01*
X0083584Y0021970D01*
X0083584Y0025589D01*
X0086143Y0028148D01*
X0089762Y0028148D01*
X0092321Y0025589D01*
X0092321Y0021970D01*
X0091551Y0021200D01*
X0093644Y0021200D01*
X0096696Y0018148D01*
X0099762Y0018148D01*
X0102321Y0015589D01*
X0102321Y0011970D01*
X0099951Y0009600D01*
X0105954Y0009600D01*
X0103584Y0011970D01*
X0103584Y0015589D01*
X0106143Y0018148D01*
X0109762Y0018148D01*
X0112321Y0015589D01*
X0112321Y0011970D01*
X0109951Y0009600D01*
X0115954Y0009600D01*
X0113584Y0011970D01*
X0113584Y0015589D01*
X0116143Y0018148D01*
X0119762Y0018148D01*
X0122321Y0015589D01*
X0122321Y0011970D01*
X0119951Y0009600D01*
X0125954Y0009600D01*
X0123584Y0011970D01*
X0123584Y0015589D01*
X0126143Y0018148D01*
X0129762Y0018148D01*
X0132321Y0015589D01*
X0132321Y0011970D01*
X0129951Y0009600D01*
X0135671Y0009600D01*
X0133384Y0011887D01*
X0133384Y0013395D01*
X0137568Y0013395D01*
X0137568Y0014164D01*
X0133384Y0014164D01*
X0133384Y0015672D01*
X0136060Y0018348D01*
X0137568Y0018348D01*
X0137568Y0014164D01*
X0138337Y0014164D01*
X0138337Y0018348D01*
X0139845Y0018348D01*
X0142521Y0015672D01*
X0142521Y0014164D01*
X0138337Y0014164D01*
X0138337Y0013395D01*
X0142521Y0013395D01*
X0142521Y0011887D01*
X0140234Y0009600D01*
X0145954Y0009600D01*
X0143584Y0011970D01*
X0143584Y0015589D01*
X0146143Y0018148D01*
X0149762Y0018148D01*
X0152321Y0015589D01*
X0152321Y0011970D01*
X0149951Y0009600D01*
X0155954Y0009600D01*
X0153584Y0011970D01*
X0153584Y0015589D01*
X0156143Y0018148D01*
X0159762Y0018148D01*
X0162321Y0015589D01*
X0162321Y0011970D01*
X0159951Y0009600D01*
X0165954Y0009600D01*
X0163584Y0011970D01*
X0163584Y0015589D01*
X0166143Y0018148D01*
X0169762Y0018148D01*
X0172321Y0015589D01*
X0172321Y0011970D01*
X0169951Y0009600D01*
X0175954Y0009600D01*
X0173584Y0011970D01*
X0173584Y0015589D01*
X0176143Y0018148D01*
X0179762Y0018148D01*
X0182321Y0015589D01*
X0182321Y0011970D01*
X0179951Y0009600D01*
X0185954Y0009600D01*
X0183584Y0011970D01*
X0183584Y0015589D01*
X0186143Y0018148D01*
X0189762Y0018148D01*
X0192321Y0015589D01*
X0192321Y0011970D01*
X0189951Y0009600D01*
X0192600Y0009600D01*
X0193000Y0010000D01*
X0193000Y0036000D01*
X0200000Y0043000D01*
X0200000Y0077000D01*
X0209000Y0086000D01*
X0209000Y0117000D01*
X0204000Y0122000D01*
X0115000Y0122000D01*
X0106000Y0113000D01*
X0106000Y0101000D01*
X0085000Y0080000D01*
X0070000Y0080000D01*
X0049000Y0059000D01*
X0036000Y0059000D01*
X0029000Y0052000D01*
X0029000Y0051742D02*
X0118631Y0051742D01*
X0119829Y0052940D02*
X0029940Y0052940D01*
X0031139Y0054139D02*
X0121028Y0054139D01*
X0121800Y0054911D02*
X0115753Y0048864D01*
X0115753Y0027758D01*
X0113584Y0025589D01*
X0113584Y0021970D01*
X0116143Y0019411D01*
X0119762Y0019411D01*
X0122321Y0021970D01*
X0122321Y0025589D01*
X0120153Y0027758D01*
X0120153Y0047041D01*
X0124911Y0051800D01*
X0140400Y0051800D01*
X0140400Y0050400D01*
X0144600Y0050400D01*
X0144600Y0049600D01*
X0145400Y0049600D01*
X0145400Y0050400D01*
X0149600Y0050400D01*
X0149600Y0051905D01*
X0148705Y0052800D01*
X0150911Y0052800D01*
X0153711Y0055600D01*
X0156823Y0055600D01*
X0159400Y0058177D01*
X0159400Y0061823D01*
X0156823Y0064400D01*
X0153177Y0064400D01*
X0152944Y0064167D01*
X0144200Y0072911D01*
X0142911Y0074200D01*
X0138911Y0074200D01*
X0134200Y0078911D01*
X0134200Y0092911D01*
X0133200Y0093911D01*
X0133200Y0100418D01*
X0133866Y0101085D01*
X0134381Y0102327D01*
X0134381Y0103673D01*
X0133866Y0104915D01*
X0132915Y0105866D01*
X0131673Y0106381D01*
X0130327Y0106381D01*
X0129085Y0105866D01*
X0128134Y0104915D01*
X0127619Y0103673D01*
X0127619Y0102327D01*
X0128134Y0101085D01*
X0128800Y0100418D01*
X0128800Y0092089D01*
X0129800Y0091089D01*
X0129800Y0077089D01*
X0131089Y0075800D01*
X0137089Y0069800D01*
X0141089Y0069800D01*
X0146489Y0064400D01*
X0143177Y0064400D01*
X0140977Y0062200D01*
X0122911Y0062200D01*
X0119200Y0065911D01*
X0119200Y0107418D01*
X0119866Y0108085D01*
X0120381Y0109327D01*
X0120381Y0110673D01*
X0119866Y0111915D01*
X0118915Y0112866D01*
X0117673Y0113381D01*
X0116327Y0113381D01*
X0115085Y0112866D01*
X0114134Y0111915D01*
X0113619Y0110673D01*
X0113619Y0109327D01*
X0114134Y0108085D01*
X0114800Y0107418D01*
X0114800Y0064089D01*
X0116089Y0062800D01*
X0121089Y0057800D01*
X0140977Y0057800D01*
X0141577Y0057200D01*
X0140089Y0057200D01*
X0139089Y0056200D01*
X0123089Y0056200D01*
X0121800Y0054911D01*
X0122226Y0055337D02*
X0032337Y0055337D01*
X0033536Y0056536D02*
X0139425Y0056536D01*
X0141043Y0057734D02*
X0034734Y0057734D01*
X0035933Y0058933D02*
X0119956Y0058933D01*
X0118757Y0060132D02*
X0050132Y0060132D01*
X0051330Y0061330D02*
X0117559Y0061330D01*
X0116360Y0062529D02*
X0052529Y0062529D01*
X0053727Y0063727D02*
X0115162Y0063727D01*
X0114800Y0064926D02*
X0054926Y0064926D01*
X0056124Y0066124D02*
X0114800Y0066124D01*
X0114800Y0067323D02*
X0057323Y0067323D01*
X0058521Y0068521D02*
X0114800Y0068521D01*
X0114800Y0069720D02*
X0059720Y0069720D01*
X0060918Y0070918D02*
X0114800Y0070918D01*
X0114800Y0072117D02*
X0062117Y0072117D01*
X0063315Y0073315D02*
X0114800Y0073315D01*
X0114800Y0074514D02*
X0064514Y0074514D01*
X0065712Y0075712D02*
X0114800Y0075712D01*
X0114800Y0076911D02*
X0066911Y0076911D01*
X0068109Y0078109D02*
X0114800Y0078109D01*
X0114800Y0079308D02*
X0069308Y0079308D01*
X0085506Y0080506D02*
X0114800Y0080506D01*
X0114800Y0081705D02*
X0086705Y0081705D01*
X0087903Y0082903D02*
X0114800Y0082903D01*
X0114800Y0084102D02*
X0089102Y0084102D01*
X0090300Y0085300D02*
X0114800Y0085300D01*
X0114800Y0086499D02*
X0091499Y0086499D01*
X0092697Y0087697D02*
X0114800Y0087697D01*
X0114800Y0088896D02*
X0093896Y0088896D01*
X0095094Y0090094D02*
X0114800Y0090094D01*
X0114800Y0091293D02*
X0096293Y0091293D01*
X0097491Y0092491D02*
X0114800Y0092491D01*
X0114800Y0093690D02*
X0098690Y0093690D01*
X0099888Y0094888D02*
X0114800Y0094888D01*
X0114800Y0096087D02*
X0101087Y0096087D01*
X0102285Y0097285D02*
X0114800Y0097285D01*
X0114800Y0098484D02*
X0103484Y0098484D01*
X0104682Y0099682D02*
X0114800Y0099682D01*
X0114800Y0100881D02*
X0105881Y0100881D01*
X0106000Y0102079D02*
X0114800Y0102079D01*
X0114800Y0103278D02*
X0106000Y0103278D01*
X0106000Y0104476D02*
X0114800Y0104476D01*
X0114800Y0105675D02*
X0106000Y0105675D01*
X0106000Y0106873D02*
X0114800Y0106873D01*
X0114146Y0108072D02*
X0106000Y0108072D01*
X0106000Y0109270D02*
X0113642Y0109270D01*
X0113619Y0110469D02*
X0106000Y0110469D01*
X0106000Y0111668D02*
X0114031Y0111668D01*
X0115084Y0112866D02*
X0106000Y0112866D01*
X0107065Y0114065D02*
X0209000Y0114065D01*
X0209000Y0115263D02*
X0108263Y0115263D01*
X0109462Y0116462D02*
X0209000Y0116462D01*
X0208340Y0117660D02*
X0110660Y0117660D01*
X0111859Y0118859D02*
X0207141Y0118859D01*
X0205943Y0120057D02*
X0113057Y0120057D01*
X0114256Y0121256D02*
X0204744Y0121256D01*
X0209000Y0112866D02*
X0168425Y0112866D01*
X0168239Y0113052D02*
X0166916Y0113600D01*
X0161084Y0113600D01*
X0159761Y0113052D01*
X0158748Y0112039D01*
X0158200Y0110716D01*
X0158200Y0109284D01*
X0158748Y0107961D01*
X0159761Y0106948D01*
X0161084Y0106400D01*
X0166916Y0106400D01*
X0168239Y0106948D01*
X0169252Y0107961D01*
X0169800Y0109284D01*
X0169800Y0110716D01*
X0169252Y0112039D01*
X0168239Y0113052D01*
X0169406Y0111668D02*
X0209000Y0111668D01*
X0209000Y0110469D02*
X0169800Y0110469D01*
X0169794Y0109270D02*
X0209000Y0109270D01*
X0209000Y0108072D02*
X0169298Y0108072D01*
X0168059Y0106873D02*
X0209000Y0106873D01*
X0209000Y0105675D02*
X0133107Y0105675D01*
X0134048Y0104476D02*
X0209000Y0104476D01*
X0209000Y0103278D02*
X0134381Y0103278D01*
X0134278Y0102079D02*
X0209000Y0102079D01*
X0209000Y0100881D02*
X0133662Y0100881D01*
X0133200Y0099682D02*
X0209000Y0099682D01*
X0209000Y0098484D02*
X0133200Y0098484D01*
X0133200Y0097285D02*
X0209000Y0097285D01*
X0209000Y0096087D02*
X0133200Y0096087D01*
X0133200Y0094888D02*
X0209000Y0094888D01*
X0209000Y0093690D02*
X0133421Y0093690D01*
X0134200Y0092491D02*
X0159200Y0092491D01*
X0158748Y0092039D02*
X0158200Y0090716D01*
X0158200Y0089284D01*
X0158748Y0087961D01*
X0159761Y0086948D01*
X0161084Y0086400D01*
X0166916Y0086400D01*
X0168239Y0086948D01*
X0169252Y0087961D01*
X0169800Y0089284D01*
X0169800Y0090716D01*
X0169252Y0092039D01*
X0168239Y0093052D01*
X0166916Y0093600D01*
X0161084Y0093600D01*
X0159761Y0093052D01*
X0158748Y0092039D01*
X0158439Y0091293D02*
X0134200Y0091293D01*
X0134200Y0090094D02*
X0158200Y0090094D01*
X0158361Y0088896D02*
X0134200Y0088896D01*
X0134200Y0087697D02*
X0159012Y0087697D01*
X0160845Y0086499D02*
X0134200Y0086499D01*
X0134200Y0085300D02*
X0208300Y0085300D01*
X0209000Y0086499D02*
X0167155Y0086499D01*
X0168988Y0087697D02*
X0209000Y0087697D01*
X0209000Y0088896D02*
X0169639Y0088896D01*
X0169800Y0090094D02*
X0209000Y0090094D01*
X0209000Y0091293D02*
X0169561Y0091293D01*
X0168800Y0092491D02*
X0209000Y0092491D01*
X0207102Y0084102D02*
X0134200Y0084102D01*
X0134200Y0082903D02*
X0205903Y0082903D01*
X0204705Y0081705D02*
X0134200Y0081705D01*
X0134200Y0080506D02*
X0203506Y0080506D01*
X0202308Y0079308D02*
X0134200Y0079308D01*
X0135002Y0078109D02*
X0201109Y0078109D01*
X0200000Y0076911D02*
X0136201Y0076911D01*
X0137399Y0075712D02*
X0200000Y0075712D01*
X0200000Y0074514D02*
X0138598Y0074514D01*
X0135971Y0070918D02*
X0119200Y0070918D01*
X0119200Y0069720D02*
X0141169Y0069720D01*
X0142368Y0068521D02*
X0119200Y0068521D01*
X0119200Y0067323D02*
X0143566Y0067323D01*
X0144765Y0066124D02*
X0119200Y0066124D01*
X0120186Y0064926D02*
X0145963Y0064926D01*
X0142505Y0063727D02*
X0121384Y0063727D01*
X0122583Y0062529D02*
X0141306Y0062529D01*
X0147392Y0069720D02*
X0200000Y0069720D01*
X0200000Y0070918D02*
X0146193Y0070918D01*
X0144995Y0072117D02*
X0200000Y0072117D01*
X0200000Y0073315D02*
X0143796Y0073315D01*
X0148590Y0068521D02*
X0200000Y0068521D01*
X0200000Y0067323D02*
X0149789Y0067323D01*
X0150987Y0066124D02*
X0200000Y0066124D01*
X0200000Y0064926D02*
X0152186Y0064926D01*
X0157495Y0063727D02*
X0162505Y0063727D01*
X0163177Y0064400D02*
X0160600Y0061823D01*
X0160600Y0058177D01*
X0163177Y0055600D01*
X0166823Y0055600D01*
X0169400Y0058177D01*
X0169400Y0061823D01*
X0166823Y0064400D01*
X0163177Y0064400D01*
X0161306Y0062529D02*
X0158694Y0062529D01*
X0159400Y0061330D02*
X0160600Y0061330D01*
X0160600Y0060132D02*
X0159400Y0060132D01*
X0159400Y0058933D02*
X0160600Y0058933D01*
X0161043Y0057734D02*
X0158957Y0057734D01*
X0157759Y0056536D02*
X0162241Y0056536D01*
X0163095Y0054600D02*
X0160400Y0051905D01*
X0160400Y0050400D01*
X0164600Y0050400D01*
X0164600Y0054600D01*
X0163095Y0054600D01*
X0162634Y0054139D02*
X0157366Y0054139D01*
X0156905Y0054600D02*
X0155400Y0054600D01*
X0155400Y0050400D01*
X0159600Y0050400D01*
X0159600Y0051905D01*
X0156905Y0054600D01*
X0155400Y0054139D02*
X0154600Y0054139D01*
X0154600Y0054600D02*
X0153095Y0054600D01*
X0150400Y0051905D01*
X0150400Y0050400D01*
X0154600Y0050400D01*
X0154600Y0054600D01*
X0153449Y0055337D02*
X0190800Y0055337D01*
X0190800Y0056089D02*
X0190800Y0046911D01*
X0189089Y0045200D01*
X0149089Y0045200D01*
X0147800Y0043911D01*
X0146270Y0042381D01*
X0145327Y0042381D01*
X0144085Y0041866D01*
X0143134Y0040915D01*
X0142619Y0039673D01*
X0142619Y0038327D01*
X0143134Y0037085D01*
X0144085Y0036134D01*
X0145327Y0035619D01*
X0146673Y0035619D01*
X0147915Y0036134D01*
X0148866Y0037085D01*
X0149381Y0038327D01*
X0149381Y0039270D01*
X0150911Y0040800D01*
X0190911Y0040800D01*
X0193911Y0043800D01*
X0195200Y0045089D01*
X0195200Y0057911D01*
X0192200Y0060911D01*
X0190911Y0062200D01*
X0189023Y0062200D01*
X0186823Y0064400D01*
X0183177Y0064400D01*
X0180600Y0061823D01*
X0180600Y0058177D01*
X0183177Y0055600D01*
X0186823Y0055600D01*
X0189023Y0057800D01*
X0189089Y0057800D01*
X0190800Y0056089D01*
X0190353Y0056536D02*
X0187759Y0056536D01*
X0188957Y0057734D02*
X0189154Y0057734D01*
X0186823Y0054400D02*
X0183177Y0054400D01*
X0180600Y0051823D01*
X0180600Y0048177D01*
X0183177Y0045600D01*
X0186823Y0045600D01*
X0189400Y0048177D01*
X0189400Y0051823D01*
X0186823Y0054400D01*
X0187084Y0054139D02*
X0190800Y0054139D01*
X0190800Y0052940D02*
X0188282Y0052940D01*
X0189400Y0051742D02*
X0190800Y0051742D01*
X0190800Y0050543D02*
X0189400Y0050543D01*
X0189400Y0049345D02*
X0190800Y0049345D01*
X0190800Y0048146D02*
X0189369Y0048146D01*
X0188170Y0046948D02*
X0190800Y0046948D01*
X0189638Y0045749D02*
X0186972Y0045749D01*
X0183028Y0045749D02*
X0177255Y0045749D01*
X0176905Y0045400D02*
X0179600Y0048095D01*
X0179600Y0049600D01*
X0175400Y0049600D01*
X0175400Y0050400D01*
X0179600Y0050400D01*
X0179600Y0051905D01*
X0176905Y0054600D01*
X0175400Y0054600D01*
X0175400Y0050400D01*
X0174600Y0050400D01*
X0174600Y0054600D01*
X0173095Y0054600D01*
X0170400Y0051905D01*
X0170400Y0050400D01*
X0174600Y0050400D01*
X0174600Y0049600D01*
X0175400Y0049600D01*
X0175400Y0045400D01*
X0176905Y0045400D01*
X0175400Y0045749D02*
X0174600Y0045749D01*
X0174600Y0045400D02*
X0174600Y0049600D01*
X0170400Y0049600D01*
X0170400Y0048095D01*
X0173095Y0045400D01*
X0174600Y0045400D01*
X0174600Y0046948D02*
X0175400Y0046948D01*
X0175400Y0048146D02*
X0174600Y0048146D01*
X0174600Y0049345D02*
X0175400Y0049345D01*
X0175400Y0050543D02*
X0174600Y0050543D01*
X0174600Y0051742D02*
X0175400Y0051742D01*
X0175400Y0052940D02*
X0174600Y0052940D01*
X0174600Y0054139D02*
X0175400Y0054139D01*
X0177366Y0054139D02*
X0182916Y0054139D01*
X0181718Y0052940D02*
X0178565Y0052940D01*
X0179600Y0051742D02*
X0180600Y0051742D01*
X0180600Y0050543D02*
X0179600Y0050543D01*
X0179600Y0049345D02*
X0180600Y0049345D01*
X0180631Y0048146D02*
X0179600Y0048146D01*
X0178453Y0046948D02*
X0181830Y0046948D01*
X0191067Y0040955D02*
X0197955Y0040955D01*
X0196757Y0039757D02*
X0149868Y0039757D01*
X0149381Y0038558D02*
X0195558Y0038558D01*
X0194360Y0037360D02*
X0148980Y0037360D01*
X0147943Y0036161D02*
X0193161Y0036161D01*
X0193000Y0034963D02*
X0139881Y0034963D01*
X0141079Y0033764D02*
X0193000Y0033764D01*
X0193000Y0032566D02*
X0142278Y0032566D01*
X0143476Y0031367D02*
X0193000Y0031367D01*
X0193000Y0030169D02*
X0144675Y0030169D01*
X0145873Y0028970D02*
X0193000Y0028970D01*
X0193000Y0027772D02*
X0190421Y0027772D01*
X0189845Y0028348D02*
X0188337Y0028348D01*
X0188337Y0024164D01*
X0187568Y0024164D01*
X0187568Y0023395D01*
X0183384Y0023395D01*
X0183384Y0021887D01*
X0186060Y0019211D01*
X0187568Y0019211D01*
X0187568Y0023395D01*
X0188337Y0023395D01*
X0188337Y0019211D01*
X0189845Y0019211D01*
X0192521Y0021887D01*
X0192521Y0023395D01*
X0188337Y0023395D01*
X0188337Y0024164D01*
X0192521Y0024164D01*
X0192521Y0025672D01*
X0189845Y0028348D01*
X0188337Y0027772D02*
X0187568Y0027772D01*
X0187568Y0028348D02*
X0186060Y0028348D01*
X0183384Y0025672D01*
X0183384Y0024164D01*
X0187568Y0024164D01*
X0187568Y0028348D01*
X0187568Y0026573D02*
X0188337Y0026573D01*
X0188337Y0025375D02*
X0187568Y0025375D01*
X0187568Y0024176D02*
X0188337Y0024176D01*
X0188337Y0022978D02*
X0187568Y0022978D01*
X0187568Y0021779D02*
X0188337Y0021779D01*
X0188337Y0020581D02*
X0187568Y0020581D01*
X0187568Y0019382D02*
X0188337Y0019382D01*
X0190016Y0019382D02*
X0193000Y0019382D01*
X0193000Y0018184D02*
X0140009Y0018184D01*
X0139762Y0019411D02*
X0142321Y0021970D01*
X0142321Y0025589D01*
X0139762Y0028148D01*
X0136143Y0028148D01*
X0133584Y0025589D01*
X0133584Y0021970D01*
X0136143Y0019411D01*
X0139762Y0019411D01*
X0140932Y0020581D02*
X0144974Y0020581D01*
X0146143Y0019411D02*
X0149762Y0019411D01*
X0152321Y0021970D01*
X0152321Y0025589D01*
X0149762Y0028148D01*
X0146696Y0028148D01*
X0138644Y0036200D01*
X0126582Y0036200D01*
X0125915Y0036866D01*
X0124673Y0037381D01*
X0123327Y0037381D01*
X0122085Y0036866D01*
X0121134Y0035915D01*
X0120619Y0034673D01*
X0120619Y0033327D01*
X0121134Y0032085D01*
X0122085Y0031134D01*
X0123327Y0030619D01*
X0124673Y0030619D01*
X0125915Y0031134D01*
X0126582Y0031800D01*
X0136821Y0031800D01*
X0143584Y0025037D01*
X0143584Y0021970D01*
X0146143Y0019411D01*
X0144980Y0016985D02*
X0141208Y0016985D01*
X0142406Y0015787D02*
X0143782Y0015787D01*
X0143584Y0014588D02*
X0142521Y0014588D01*
X0142521Y0013390D02*
X0143584Y0013390D01*
X0143584Y0012191D02*
X0142521Y0012191D01*
X0141627Y0010993D02*
X0144562Y0010993D01*
X0145760Y0009794D02*
X0140428Y0009794D01*
X0135477Y0009794D02*
X0130145Y0009794D01*
X0131344Y0010993D02*
X0134279Y0010993D01*
X0133384Y0012191D02*
X0132321Y0012191D01*
X0132321Y0013390D02*
X0133384Y0013390D01*
X0133384Y0014588D02*
X0132321Y0014588D01*
X0132124Y0015787D02*
X0133499Y0015787D01*
X0134698Y0016985D02*
X0130925Y0016985D01*
X0129762Y0019411D02*
X0126143Y0019411D01*
X0123584Y0021970D01*
X0123584Y0025589D01*
X0126143Y0028148D01*
X0129762Y0028148D01*
X0132321Y0025589D01*
X0132321Y0021970D01*
X0129762Y0019411D01*
X0130932Y0020581D02*
X0134974Y0020581D01*
X0133775Y0021779D02*
X0132130Y0021779D01*
X0132321Y0022978D02*
X0133584Y0022978D01*
X0133584Y0024176D02*
X0132321Y0024176D01*
X0132321Y0025375D02*
X0133584Y0025375D01*
X0134568Y0026573D02*
X0131337Y0026573D01*
X0130139Y0027772D02*
X0135767Y0027772D01*
X0138452Y0030169D02*
X0120153Y0030169D01*
X0120153Y0031367D02*
X0121851Y0031367D01*
X0120934Y0032566D02*
X0120153Y0032566D01*
X0120153Y0033764D02*
X0120619Y0033764D01*
X0120739Y0034963D02*
X0120153Y0034963D01*
X0120153Y0036161D02*
X0121380Y0036161D01*
X0120153Y0037360D02*
X0123276Y0037360D01*
X0124724Y0037360D02*
X0143020Y0037360D01*
X0142619Y0038558D02*
X0120153Y0038558D01*
X0120153Y0039757D02*
X0142654Y0039757D01*
X0143174Y0040955D02*
X0120153Y0040955D01*
X0120153Y0042154D02*
X0144779Y0042154D01*
X0147241Y0043352D02*
X0120153Y0043352D01*
X0120153Y0044551D02*
X0148440Y0044551D01*
X0147255Y0045749D02*
X0152745Y0045749D01*
X0153095Y0045400D02*
X0154600Y0045400D01*
X0154600Y0049600D01*
X0155400Y0049600D01*
X0155400Y0050400D01*
X0154600Y0050400D01*
X0154600Y0049600D01*
X0150400Y0049600D01*
X0150400Y0048095D01*
X0153095Y0045400D01*
X0154600Y0045749D02*
X0155400Y0045749D01*
X0155400Y0045400D02*
X0156905Y0045400D01*
X0159600Y0048095D01*
X0159600Y0049600D01*
X0155400Y0049600D01*
X0155400Y0045400D01*
X0155400Y0046948D02*
X0154600Y0046948D01*
X0154600Y0048146D02*
X0155400Y0048146D01*
X0155400Y0049345D02*
X0154600Y0049345D01*
X0154600Y0050543D02*
X0155400Y0050543D01*
X0155400Y0051742D02*
X0154600Y0051742D01*
X0154600Y0052940D02*
X0155400Y0052940D01*
X0152634Y0054139D02*
X0152250Y0054139D01*
X0151435Y0052940D02*
X0151052Y0052940D01*
X0150400Y0051742D02*
X0149600Y0051742D01*
X0149600Y0050543D02*
X0150400Y0050543D01*
X0150400Y0049345D02*
X0149600Y0049345D01*
X0149600Y0049600D02*
X0145400Y0049600D01*
X0145400Y0045400D01*
X0146905Y0045400D01*
X0149600Y0048095D01*
X0149600Y0049600D01*
X0149600Y0048146D02*
X0150400Y0048146D01*
X0151547Y0046948D02*
X0148453Y0046948D01*
X0145400Y0046948D02*
X0144600Y0046948D01*
X0144600Y0048146D02*
X0145400Y0048146D01*
X0145400Y0049345D02*
X0144600Y0049345D01*
X0144600Y0049600D02*
X0144600Y0045400D01*
X0143095Y0045400D01*
X0140400Y0048095D01*
X0140400Y0049600D01*
X0144600Y0049600D01*
X0144600Y0045749D02*
X0145400Y0045749D01*
X0142745Y0045749D02*
X0120153Y0045749D01*
X0120153Y0046948D02*
X0141547Y0046948D01*
X0140400Y0048146D02*
X0121258Y0048146D01*
X0122456Y0049345D02*
X0140400Y0049345D01*
X0140400Y0050543D02*
X0123655Y0050543D01*
X0124853Y0051742D02*
X0140400Y0051742D01*
X0138682Y0036161D02*
X0144057Y0036161D01*
X0137254Y0031367D02*
X0126149Y0031367D01*
X0125767Y0027772D02*
X0120153Y0027772D01*
X0120153Y0028970D02*
X0139651Y0028970D01*
X0140139Y0027772D02*
X0140849Y0027772D01*
X0141337Y0026573D02*
X0142048Y0026573D01*
X0142321Y0025375D02*
X0143246Y0025375D01*
X0143584Y0024176D02*
X0142321Y0024176D01*
X0142321Y0022978D02*
X0143584Y0022978D01*
X0143775Y0021779D02*
X0142130Y0021779D01*
X0138337Y0018184D02*
X0137568Y0018184D01*
X0137568Y0016985D02*
X0138337Y0016985D01*
X0138337Y0015787D02*
X0137568Y0015787D01*
X0137568Y0014588D02*
X0138337Y0014588D01*
X0135896Y0018184D02*
X0096660Y0018184D01*
X0096143Y0019411D02*
X0099762Y0019411D01*
X0102321Y0021970D01*
X0102321Y0025589D01*
X0099762Y0028148D01*
X0096143Y0028148D01*
X0093584Y0025589D01*
X0093584Y0021970D01*
X0096143Y0019411D01*
X0095461Y0019382D02*
X0105889Y0019382D01*
X0106060Y0019211D02*
X0107568Y0019211D01*
X0107568Y0023395D01*
X0103384Y0023395D01*
X0103384Y0021887D01*
X0106060Y0019211D01*
X0107568Y0019382D02*
X0108337Y0019382D01*
X0108337Y0019211D02*
X0109845Y0019211D01*
X0112521Y0021887D01*
X0112521Y0023395D01*
X0108337Y0023395D01*
X0108337Y0019211D01*
X0108337Y0020581D02*
X0107568Y0020581D01*
X0107568Y0021779D02*
X0108337Y0021779D01*
X0108337Y0022978D02*
X0107568Y0022978D01*
X0107568Y0023395D02*
X0108337Y0023395D01*
X0108337Y0024164D01*
X0107568Y0024164D01*
X0107568Y0023395D01*
X0107568Y0024164D02*
X0103384Y0024164D01*
X0103384Y0025672D01*
X0106060Y0028348D01*
X0107568Y0028348D01*
X0107568Y0024164D01*
X0107568Y0024176D02*
X0108337Y0024176D01*
X0108337Y0024164D02*
X0108337Y0028348D01*
X0109845Y0028348D01*
X0112521Y0025672D01*
X0112521Y0024164D01*
X0108337Y0024164D01*
X0108337Y0025375D02*
X0107568Y0025375D01*
X0107568Y0026573D02*
X0108337Y0026573D01*
X0108337Y0027772D02*
X0107568Y0027772D01*
X0105484Y0027772D02*
X0100139Y0027772D01*
X0101337Y0026573D02*
X0104286Y0026573D01*
X0103384Y0025375D02*
X0102321Y0025375D01*
X0102321Y0024176D02*
X0103384Y0024176D01*
X0103384Y0022978D02*
X0102321Y0022978D01*
X0102130Y0021779D02*
X0103492Y0021779D01*
X0104691Y0020581D02*
X0100932Y0020581D01*
X0100925Y0016985D02*
X0104980Y0016985D01*
X0103782Y0015787D02*
X0102124Y0015787D01*
X0102321Y0014588D02*
X0103584Y0014588D01*
X0103584Y0013390D02*
X0102321Y0013390D01*
X0102321Y0012191D02*
X0103584Y0012191D01*
X0104562Y0010993D02*
X0101344Y0010993D01*
X0100145Y0009794D02*
X0105760Y0009794D01*
X0110145Y0009794D02*
X0115760Y0009794D01*
X0114562Y0010993D02*
X0111344Y0010993D01*
X0112321Y0012191D02*
X0113584Y0012191D01*
X0113584Y0013390D02*
X0112321Y0013390D01*
X0112321Y0014588D02*
X0113584Y0014588D01*
X0113782Y0015787D02*
X0112124Y0015787D01*
X0110925Y0016985D02*
X0114980Y0016985D01*
X0110016Y0019382D02*
X0185889Y0019382D01*
X0184691Y0020581D02*
X0180932Y0020581D01*
X0179762Y0019411D02*
X0182321Y0021970D01*
X0182321Y0025589D01*
X0179762Y0028148D01*
X0176143Y0028148D01*
X0173584Y0025589D01*
X0173584Y0021970D01*
X0176143Y0019411D01*
X0179762Y0019411D01*
X0180925Y0016985D02*
X0184980Y0016985D01*
X0183782Y0015787D02*
X0182124Y0015787D01*
X0182321Y0014588D02*
X0183584Y0014588D01*
X0183584Y0013390D02*
X0182321Y0013390D01*
X0182321Y0012191D02*
X0183584Y0012191D01*
X0184562Y0010993D02*
X0181344Y0010993D01*
X0180145Y0009794D02*
X0185760Y0009794D01*
X0190145Y0009794D02*
X0192794Y0009794D01*
X0193000Y0010993D02*
X0191344Y0010993D01*
X0192321Y0012191D02*
X0193000Y0012191D01*
X0193000Y0013390D02*
X0192321Y0013390D01*
X0192321Y0014588D02*
X0193000Y0014588D01*
X0193000Y0015787D02*
X0192124Y0015787D01*
X0193000Y0016985D02*
X0190925Y0016985D01*
X0191215Y0020581D02*
X0193000Y0020581D01*
X0193000Y0021779D02*
X0192413Y0021779D01*
X0192521Y0022978D02*
X0193000Y0022978D01*
X0193000Y0024176D02*
X0192521Y0024176D01*
X0192521Y0025375D02*
X0193000Y0025375D01*
X0193000Y0026573D02*
X0191620Y0026573D01*
X0185484Y0027772D02*
X0180139Y0027772D01*
X0181337Y0026573D02*
X0184286Y0026573D01*
X0183384Y0025375D02*
X0182321Y0025375D01*
X0182321Y0024176D02*
X0183384Y0024176D01*
X0183384Y0022978D02*
X0182321Y0022978D01*
X0182130Y0021779D02*
X0183492Y0021779D01*
X0175767Y0027772D02*
X0170139Y0027772D01*
X0169762Y0028148D02*
X0166143Y0028148D01*
X0163584Y0025589D01*
X0163584Y0021970D01*
X0166143Y0019411D01*
X0169762Y0019411D01*
X0172321Y0021970D01*
X0172321Y0025589D01*
X0169762Y0028148D01*
X0171337Y0026573D02*
X0174568Y0026573D01*
X0173584Y0025375D02*
X0172321Y0025375D01*
X0172321Y0024176D02*
X0173584Y0024176D01*
X0173584Y0022978D02*
X0172321Y0022978D01*
X0172130Y0021779D02*
X0173775Y0021779D01*
X0174974Y0020581D02*
X0170932Y0020581D01*
X0170925Y0016985D02*
X0174980Y0016985D01*
X0173782Y0015787D02*
X0172124Y0015787D01*
X0172321Y0014588D02*
X0173584Y0014588D01*
X0173584Y0013390D02*
X0172321Y0013390D01*
X0172321Y0012191D02*
X0173584Y0012191D01*
X0174562Y0010993D02*
X0171344Y0010993D01*
X0170145Y0009794D02*
X0175760Y0009794D01*
X0165760Y0009794D02*
X0160145Y0009794D01*
X0161344Y0010993D02*
X0164562Y0010993D01*
X0163584Y0012191D02*
X0162321Y0012191D01*
X0162321Y0013390D02*
X0163584Y0013390D01*
X0163584Y0014588D02*
X0162321Y0014588D01*
X0162124Y0015787D02*
X0163782Y0015787D01*
X0164980Y0016985D02*
X0160925Y0016985D01*
X0159762Y0019411D02*
X0162321Y0021970D01*
X0162321Y0025589D01*
X0159762Y0028148D01*
X0156143Y0028148D01*
X0153584Y0025589D01*
X0153584Y0021970D01*
X0156143Y0019411D01*
X0159762Y0019411D01*
X0160932Y0020581D02*
X0164974Y0020581D01*
X0163775Y0021779D02*
X0162130Y0021779D01*
X0162321Y0022978D02*
X0163584Y0022978D01*
X0163584Y0024176D02*
X0162321Y0024176D01*
X0162321Y0025375D02*
X0163584Y0025375D01*
X0164568Y0026573D02*
X0161337Y0026573D01*
X0160139Y0027772D02*
X0165767Y0027772D01*
X0155767Y0027772D02*
X0150139Y0027772D01*
X0151337Y0026573D02*
X0154568Y0026573D01*
X0153584Y0025375D02*
X0152321Y0025375D01*
X0152321Y0024176D02*
X0153584Y0024176D01*
X0153584Y0022978D02*
X0152321Y0022978D01*
X0152130Y0021779D02*
X0153775Y0021779D01*
X0154974Y0020581D02*
X0150932Y0020581D01*
X0150925Y0016985D02*
X0154980Y0016985D01*
X0153782Y0015787D02*
X0152124Y0015787D01*
X0152321Y0014588D02*
X0153584Y0014588D01*
X0153584Y0013390D02*
X0152321Y0013390D01*
X0152321Y0012191D02*
X0153584Y0012191D01*
X0154562Y0010993D02*
X0151344Y0010993D01*
X0150145Y0009794D02*
X0155760Y0009794D01*
X0125760Y0009794D02*
X0120145Y0009794D01*
X0121344Y0010993D02*
X0124562Y0010993D01*
X0123584Y0012191D02*
X0122321Y0012191D01*
X0122321Y0013390D02*
X0123584Y0013390D01*
X0123584Y0014588D02*
X0122321Y0014588D01*
X0122124Y0015787D02*
X0123782Y0015787D01*
X0124980Y0016985D02*
X0120925Y0016985D01*
X0120932Y0020581D02*
X0124974Y0020581D01*
X0123775Y0021779D02*
X0122130Y0021779D01*
X0122321Y0022978D02*
X0123584Y0022978D01*
X0123584Y0024176D02*
X0122321Y0024176D01*
X0122321Y0025375D02*
X0123584Y0025375D01*
X0124568Y0026573D02*
X0121337Y0026573D01*
X0115753Y0027772D02*
X0110421Y0027772D01*
X0111620Y0026573D02*
X0114568Y0026573D01*
X0113584Y0025375D02*
X0112521Y0025375D01*
X0112521Y0024176D02*
X0113584Y0024176D01*
X0113584Y0022978D02*
X0112521Y0022978D01*
X0112413Y0021779D02*
X0113775Y0021779D01*
X0114974Y0020581D02*
X0111215Y0020581D01*
X0115753Y0028970D02*
X0074141Y0028970D01*
X0075200Y0027772D02*
X0075767Y0027772D01*
X0072943Y0030169D02*
X0115753Y0030169D01*
X0115753Y0031367D02*
X0072381Y0031367D01*
X0072381Y0032566D02*
X0115753Y0032566D01*
X0115753Y0033764D02*
X0071929Y0033764D01*
X0070682Y0034963D02*
X0115753Y0034963D01*
X0115753Y0036161D02*
X0029000Y0036161D01*
X0029000Y0034963D02*
X0067318Y0034963D01*
X0066071Y0033764D02*
X0029000Y0033764D01*
X0029000Y0032566D02*
X0065619Y0032566D01*
X0065619Y0031367D02*
X0029000Y0031367D01*
X0029000Y0030169D02*
X0066099Y0030169D01*
X0067479Y0028970D02*
X0029000Y0028970D01*
X0029000Y0027772D02*
X0035484Y0027772D01*
X0036060Y0028348D02*
X0033384Y0025672D01*
X0033384Y0024164D01*
X0037568Y0024164D01*
X0037568Y0023395D01*
X0033384Y0023395D01*
X0033384Y0021887D01*
X0036060Y0019211D01*
X0037568Y0019211D01*
X0037568Y0023395D01*
X0038337Y0023395D01*
X0038337Y0019211D01*
X0039845Y0019211D01*
X0042521Y0021887D01*
X0042521Y0023395D01*
X0038337Y0023395D01*
X0038337Y0024164D01*
X0037568Y0024164D01*
X0037568Y0028348D01*
X0036060Y0028348D01*
X0037568Y0027772D02*
X0038337Y0027772D01*
X0038337Y0028348D02*
X0039845Y0028348D01*
X0042521Y0025672D01*
X0042521Y0024164D01*
X0038337Y0024164D01*
X0038337Y0028348D01*
X0038337Y0026573D02*
X0037568Y0026573D01*
X0037568Y0025375D02*
X0038337Y0025375D01*
X0038337Y0024176D02*
X0037568Y0024176D01*
X0037568Y0022978D02*
X0038337Y0022978D01*
X0038337Y0021779D02*
X0037568Y0021779D01*
X0037568Y0020581D02*
X0038337Y0020581D01*
X0038337Y0019382D02*
X0037568Y0019382D01*
X0035889Y0019382D02*
X0029000Y0019382D01*
X0029000Y0018184D02*
X0065896Y0018184D01*
X0067568Y0018184D02*
X0068337Y0018184D01*
X0068337Y0016985D02*
X0067568Y0016985D01*
X0067568Y0015787D02*
X0068337Y0015787D01*
X0068337Y0014588D02*
X0067568Y0014588D01*
X0064698Y0016985D02*
X0060925Y0016985D01*
X0062124Y0015787D02*
X0063499Y0015787D01*
X0063384Y0014588D02*
X0062321Y0014588D01*
X0062321Y0013390D02*
X0063384Y0013390D01*
X0063384Y0012191D02*
X0062321Y0012191D01*
X0061344Y0010993D02*
X0064279Y0010993D01*
X0065477Y0009794D02*
X0060145Y0009794D01*
X0055760Y0009794D02*
X0050145Y0009794D01*
X0051344Y0010993D02*
X0054562Y0010993D01*
X0053584Y0012191D02*
X0052321Y0012191D01*
X0052321Y0013390D02*
X0053584Y0013390D01*
X0053584Y0014588D02*
X0052321Y0014588D01*
X0052124Y0015787D02*
X0053782Y0015787D01*
X0054980Y0016985D02*
X0050925Y0016985D01*
X0049762Y0019411D02*
X0052321Y0021970D01*
X0052321Y0025589D01*
X0049762Y0028148D01*
X0046143Y0028148D01*
X0043584Y0025589D01*
X0043584Y0021970D01*
X0046143Y0019411D01*
X0049762Y0019411D01*
X0050932Y0020581D02*
X0054974Y0020581D01*
X0056143Y0019411D02*
X0053584Y0021970D01*
X0053584Y0025589D01*
X0056143Y0028148D01*
X0059762Y0028148D01*
X0062321Y0025589D01*
X0062321Y0021970D01*
X0059762Y0019411D01*
X0056143Y0019411D01*
X0053775Y0021779D02*
X0052130Y0021779D01*
X0052321Y0022978D02*
X0053584Y0022978D01*
X0053584Y0024176D02*
X0052321Y0024176D01*
X0052321Y0025375D02*
X0053584Y0025375D01*
X0054568Y0026573D02*
X0051337Y0026573D01*
X0050139Y0027772D02*
X0055767Y0027772D01*
X0060139Y0027772D02*
X0065767Y0027772D01*
X0064568Y0026573D02*
X0061337Y0026573D01*
X0062321Y0025375D02*
X0063584Y0025375D01*
X0063584Y0024176D02*
X0062321Y0024176D01*
X0062321Y0022978D02*
X0063584Y0022978D01*
X0063775Y0021779D02*
X0062130Y0021779D01*
X0060932Y0020581D02*
X0064974Y0020581D01*
X0070009Y0018184D02*
X0072705Y0018184D01*
X0071507Y0019382D02*
X0040016Y0019382D01*
X0041215Y0020581D02*
X0044974Y0020581D01*
X0043775Y0021779D02*
X0042413Y0021779D01*
X0042521Y0022978D02*
X0043584Y0022978D01*
X0043584Y0024176D02*
X0042521Y0024176D01*
X0042521Y0025375D02*
X0043584Y0025375D01*
X0044568Y0026573D02*
X0041620Y0026573D01*
X0040421Y0027772D02*
X0045767Y0027772D01*
X0034286Y0026573D02*
X0029000Y0026573D01*
X0029000Y0025375D02*
X0033384Y0025375D01*
X0033384Y0024176D02*
X0029000Y0024176D01*
X0029000Y0022978D02*
X0033384Y0022978D01*
X0033492Y0021779D02*
X0029000Y0021779D01*
X0029000Y0020581D02*
X0034691Y0020581D01*
X0034980Y0016985D02*
X0029000Y0016985D01*
X0029000Y0015787D02*
X0034056Y0015787D01*
X0033584Y0014588D02*
X0029000Y0014588D01*
X0029000Y0013390D02*
X0033584Y0013390D01*
X0033882Y0012191D02*
X0029000Y0012191D01*
X0029000Y0010993D02*
X0034562Y0010993D01*
X0036159Y0009794D02*
X0029206Y0009794D01*
X0039746Y0009794D02*
X0045760Y0009794D01*
X0044562Y0010993D02*
X0041344Y0010993D01*
X0042023Y0012191D02*
X0043584Y0012191D01*
X0043584Y0013390D02*
X0042321Y0013390D01*
X0042321Y0014588D02*
X0043584Y0014588D01*
X0043782Y0015787D02*
X0041850Y0015787D01*
X0040925Y0016985D02*
X0044980Y0016985D01*
X0029000Y0037360D02*
X0115753Y0037360D01*
X0115753Y0038558D02*
X0029000Y0038558D01*
X0029000Y0039757D02*
X0115753Y0039757D01*
X0115753Y0040955D02*
X0029000Y0040955D01*
X0029000Y0042154D02*
X0115753Y0042154D01*
X0115753Y0043352D02*
X0029000Y0043352D01*
X0029000Y0044551D02*
X0115753Y0044551D01*
X0115753Y0045749D02*
X0029000Y0045749D01*
X0029000Y0046948D02*
X0115753Y0046948D01*
X0115753Y0048146D02*
X0029000Y0048146D01*
X0029000Y0049345D02*
X0116234Y0049345D01*
X0117432Y0050543D02*
X0029000Y0050543D01*
X0071208Y0016985D02*
X0073904Y0016985D01*
X0073782Y0015787D02*
X0072406Y0015787D01*
X0072521Y0014588D02*
X0073584Y0014588D01*
X0073584Y0013390D02*
X0072521Y0013390D01*
X0072521Y0012191D02*
X0073584Y0012191D01*
X0074562Y0010993D02*
X0071627Y0010993D01*
X0070428Y0009794D02*
X0075760Y0009794D01*
X0079951Y0009600D02*
X0082321Y0011970D01*
X0082321Y0015589D01*
X0081110Y0016800D01*
X0084512Y0016800D01*
X0083384Y0015672D01*
X0083384Y0014164D01*
X0087568Y0014164D01*
X0087568Y0013395D01*
X0083384Y0013395D01*
X0083384Y0011887D01*
X0085671Y0009600D01*
X0079951Y0009600D01*
X0080145Y0009794D02*
X0085477Y0009794D01*
X0084279Y0010993D02*
X0081344Y0010993D01*
X0082321Y0012191D02*
X0083384Y0012191D01*
X0083384Y0013390D02*
X0082321Y0013390D01*
X0082321Y0014588D02*
X0083384Y0014588D01*
X0083499Y0015787D02*
X0082124Y0015787D01*
X0088337Y0014164D02*
X0088337Y0013395D01*
X0092521Y0013395D01*
X0092521Y0011887D01*
X0090234Y0009600D01*
X0095954Y0009600D01*
X0093584Y0011970D01*
X0093584Y0015037D01*
X0091821Y0016800D01*
X0091393Y0016800D01*
X0092521Y0015672D01*
X0092521Y0014164D01*
X0088337Y0014164D01*
X0092521Y0014588D02*
X0093584Y0014588D01*
X0093584Y0013390D02*
X0092521Y0013390D01*
X0092521Y0012191D02*
X0093584Y0012191D01*
X0094562Y0010993D02*
X0091627Y0010993D01*
X0090428Y0009794D02*
X0095760Y0009794D01*
X0092834Y0015787D02*
X0092406Y0015787D01*
X0094263Y0020581D02*
X0094974Y0020581D01*
X0093775Y0021779D02*
X0092130Y0021779D01*
X0092321Y0022978D02*
X0093584Y0022978D01*
X0093584Y0024176D02*
X0092321Y0024176D01*
X0092321Y0025375D02*
X0093584Y0025375D01*
X0094568Y0026573D02*
X0091337Y0026573D01*
X0090139Y0027772D02*
X0095767Y0027772D01*
X0085767Y0027772D02*
X0080139Y0027772D01*
X0081337Y0026573D02*
X0084568Y0026573D01*
X0083584Y0025375D02*
X0082321Y0025375D01*
X0082321Y0024176D02*
X0083584Y0024176D01*
X0083584Y0022978D02*
X0082321Y0022978D01*
X0082130Y0021779D02*
X0083775Y0021779D01*
X0119200Y0072117D02*
X0134772Y0072117D01*
X0133574Y0073315D02*
X0119200Y0073315D01*
X0119200Y0074514D02*
X0132375Y0074514D01*
X0131177Y0075712D02*
X0119200Y0075712D01*
X0119200Y0076911D02*
X0129978Y0076911D01*
X0129800Y0078109D02*
X0119200Y0078109D01*
X0119200Y0079308D02*
X0129800Y0079308D01*
X0129800Y0080506D02*
X0119200Y0080506D01*
X0119200Y0081705D02*
X0129800Y0081705D01*
X0129800Y0082903D02*
X0119200Y0082903D01*
X0119200Y0084102D02*
X0129800Y0084102D01*
X0129800Y0085300D02*
X0119200Y0085300D01*
X0119200Y0086499D02*
X0129800Y0086499D01*
X0129800Y0087697D02*
X0119200Y0087697D01*
X0119200Y0088896D02*
X0129800Y0088896D01*
X0129800Y0090094D02*
X0119200Y0090094D01*
X0119200Y0091293D02*
X0129596Y0091293D01*
X0128800Y0092491D02*
X0119200Y0092491D01*
X0119200Y0093690D02*
X0128800Y0093690D01*
X0128800Y0094888D02*
X0119200Y0094888D01*
X0119200Y0096087D02*
X0128800Y0096087D01*
X0128800Y0097285D02*
X0119200Y0097285D01*
X0119200Y0098484D02*
X0128800Y0098484D01*
X0128800Y0099682D02*
X0119200Y0099682D01*
X0119200Y0100881D02*
X0128337Y0100881D01*
X0127722Y0102079D02*
X0119200Y0102079D01*
X0119200Y0103278D02*
X0127619Y0103278D01*
X0127952Y0104476D02*
X0119200Y0104476D01*
X0119200Y0105675D02*
X0128893Y0105675D01*
X0120357Y0109270D02*
X0158206Y0109270D01*
X0158200Y0110469D02*
X0120381Y0110469D01*
X0119969Y0111668D02*
X0158594Y0111668D01*
X0159575Y0112866D02*
X0118916Y0112866D01*
X0119854Y0108072D02*
X0158702Y0108072D01*
X0159941Y0106873D02*
X0119200Y0106873D01*
X0167495Y0063727D02*
X0172505Y0063727D01*
X0173177Y0064400D02*
X0170600Y0061823D01*
X0170600Y0058177D01*
X0173177Y0055600D01*
X0176823Y0055600D01*
X0179400Y0058177D01*
X0179400Y0061823D01*
X0176823Y0064400D01*
X0173177Y0064400D01*
X0171306Y0062529D02*
X0168694Y0062529D01*
X0169400Y0061330D02*
X0170600Y0061330D01*
X0170600Y0060132D02*
X0169400Y0060132D01*
X0169400Y0058933D02*
X0170600Y0058933D01*
X0171043Y0057734D02*
X0168957Y0057734D01*
X0167759Y0056536D02*
X0172241Y0056536D01*
X0172634Y0054139D02*
X0167366Y0054139D01*
X0166905Y0054600D02*
X0165400Y0054600D01*
X0165400Y0050400D01*
X0169600Y0050400D01*
X0169600Y0051905D01*
X0166905Y0054600D01*
X0165400Y0054139D02*
X0164600Y0054139D01*
X0164600Y0052940D02*
X0165400Y0052940D01*
X0165400Y0051742D02*
X0164600Y0051742D01*
X0164600Y0050543D02*
X0165400Y0050543D01*
X0165400Y0050400D02*
X0164600Y0050400D01*
X0164600Y0049600D01*
X0165400Y0049600D01*
X0165400Y0050400D01*
X0165400Y0049600D02*
X0169600Y0049600D01*
X0169600Y0048095D01*
X0166905Y0045400D01*
X0165400Y0045400D01*
X0165400Y0049600D01*
X0165400Y0049345D02*
X0164600Y0049345D01*
X0164600Y0049600D02*
X0164600Y0045400D01*
X0163095Y0045400D01*
X0160400Y0048095D01*
X0160400Y0049600D01*
X0164600Y0049600D01*
X0164600Y0048146D02*
X0165400Y0048146D01*
X0165400Y0046948D02*
X0164600Y0046948D01*
X0164600Y0045749D02*
X0165400Y0045749D01*
X0167255Y0045749D02*
X0172745Y0045749D01*
X0171547Y0046948D02*
X0168453Y0046948D01*
X0169600Y0048146D02*
X0170400Y0048146D01*
X0170400Y0049345D02*
X0169600Y0049345D01*
X0169600Y0050543D02*
X0170400Y0050543D01*
X0170400Y0051742D02*
X0169600Y0051742D01*
X0168565Y0052940D02*
X0171435Y0052940D01*
X0177759Y0056536D02*
X0182241Y0056536D01*
X0181043Y0057734D02*
X0178957Y0057734D01*
X0179400Y0058933D02*
X0180600Y0058933D01*
X0180600Y0060132D02*
X0179400Y0060132D01*
X0179400Y0061330D02*
X0180600Y0061330D01*
X0181306Y0062529D02*
X0178694Y0062529D01*
X0177495Y0063727D02*
X0182505Y0063727D01*
X0187495Y0063727D02*
X0200000Y0063727D01*
X0200000Y0062529D02*
X0188694Y0062529D01*
X0191781Y0061330D02*
X0200000Y0061330D01*
X0200000Y0060132D02*
X0192980Y0060132D01*
X0194178Y0058933D02*
X0200000Y0058933D01*
X0200000Y0057734D02*
X0195200Y0057734D01*
X0195200Y0056536D02*
X0200000Y0056536D01*
X0200000Y0055337D02*
X0195200Y0055337D01*
X0195200Y0054139D02*
X0200000Y0054139D01*
X0200000Y0052940D02*
X0195200Y0052940D01*
X0195200Y0051742D02*
X0200000Y0051742D01*
X0200000Y0050543D02*
X0195200Y0050543D01*
X0195200Y0049345D02*
X0200000Y0049345D01*
X0200000Y0048146D02*
X0195200Y0048146D01*
X0195200Y0046948D02*
X0200000Y0046948D01*
X0200000Y0045749D02*
X0195200Y0045749D01*
X0194662Y0044551D02*
X0200000Y0044551D01*
X0200000Y0043352D02*
X0193464Y0043352D01*
X0192265Y0042154D02*
X0199154Y0042154D01*
X0162745Y0045749D02*
X0157255Y0045749D01*
X0158453Y0046948D02*
X0161547Y0046948D01*
X0160400Y0048146D02*
X0159600Y0048146D01*
X0159600Y0049345D02*
X0160400Y0049345D01*
X0160400Y0050543D02*
X0159600Y0050543D01*
X0159600Y0051742D02*
X0160400Y0051742D01*
X0161435Y0052940D02*
X0158565Y0052940D01*
D19*
X0227953Y0013780D02*
X0232780Y0013780D01*
X0236000Y0017000D01*
X0236000Y0106000D01*
X0214000Y0128000D01*
X0029000Y0128000D01*
X0025000Y0124000D01*
X0025000Y0115000D01*
X0025000Y0100000D01*
X0025000Y0085000D01*
X0025000Y0070000D01*
M02*
